<svg xmlns="http://www.w3.org/2000/svg" width="71" height="71" fill="none" viewBox="0 0 71 71">
  <g clip-path="url(#clip0)">
    <path fill="#C4C4C4" d="M49.23 32.36H38.64V21.77c0-1.17-.948-2.118-2.117-2.118H35.11c-1.17 0-2.118.949-2.118 2.118v10.59h-10.59a2.119 2.119 0 00-2.117 2.117v1.412c0 1.17.948 2.118 2.117 2.118h10.59v10.59c0 1.169.949 2.117 2.118 2.117h1.412c1.169 0 2.118-.948 2.118-2.118v-10.59h10.59a2.119 2.119 0 002.117-2.117v-1.412a2.119 2.119 0 00-2.118-2.118z"/>
  </g>
  <circle cx="35.5" cy="35.5" r="33" stroke="#CBCBCB" stroke-width="5"/>
  <defs>
    <clipPath id="clip0">
      <path fill="#fff" d="M0 0h31.063v31.063H0z" transform="translate(20.286 19.652)"/>
    </clipPath>
  </defs>
</svg>
