<svg xmlns="http://www.w3.org/2000/svg" width="112" height="112" fill="none" viewBox="0 0 112 112">
  <g clip-path="url(#clip0)">
    <path fill="#C4C4C4" d="M77.659 51.045H60.954V34.341A3.342 3.342 0 0057.614 31h-2.228a3.342 3.342 0 00-3.34 3.34v16.705H35.34A3.342 3.342 0 0032 54.386v2.227a3.342 3.342 0 003.34 3.341h16.705V76.66a3.342 3.342 0 003.341 3.34h2.227a3.342 3.342 0 003.341-3.34V59.954H77.66a3.342 3.342 0 003.34-3.34v-2.228a3.342 3.342 0 00-3.34-3.34z"/>
  </g>
  <circle cx="56" cy="56" r="51" stroke="#CBCBCB" stroke-width="10"/>
  <defs>
    <clipPath id="clip0">
      <path fill="#fff" d="M0 0h49v49H0z" transform="translate(32 31)"/>
    </clipPath>
  </defs>
</svg>
