<svg width="162" height="123" viewBox="0 0 162 123" fill="none" xmlns="http://www.w3.org/2000/svg">
  <path d="M1.82334 115.807C1.32283 115.807 0.893803 115.627 0.536277 115.267C0.178761 114.907 0 114.476 0 113.972V91.8523C0 91.3487 0.178761 90.9172 0.536277 90.5573C0.893803 90.1977 1.32283 90.0179 1.82334 90.0179L7.15036 90C8.69962 90 10.0224 90.5514 11.1188 91.6543C12.2271 92.7574 12.7813 94.0882 12.7813 95.6469C12.7813 96.8456 12.4595 97.9127 11.816 98.8478C12.4953 99.2435 13.1329 99.7471 13.7287 100.359C15.4925 102.121 16.3744 104.249 16.3744 106.743C16.3744 109.248 15.4925 111.389 13.7287 113.163C11.9769 114.925 9.85561 115.807 7.36489 115.807H1.82334ZM7.15036 97.6968C7.71049 97.6968 8.18719 97.4991 8.58044 97.1035C8.97371 96.7078 9.17037 96.2223 9.17037 95.6469C9.17037 95.0952 8.97371 94.6217 8.58044 94.2261C8.18719 93.8184 7.71049 93.6145 7.15036 93.6145H3.64669V97.6968H7.15036ZM7.36489 112.192C8.86645 112.192 10.1416 111.658 11.1903 110.591C12.251 109.524 12.7813 108.241 12.7813 106.743C12.7813 105.256 12.251 103.979 11.1903 102.912C10.1416 101.845 8.86645 101.312 7.36489 101.312H3.64669V112.192H7.36489ZM21.4511 96.0604C20.9506 96.0604 20.5216 95.8806 20.1641 95.521C19.8065 95.1611 19.6278 94.7297 19.6278 94.2261C19.6278 93.7225 19.8065 93.291 20.1641 92.9311C20.5216 92.5715 20.9506 92.3917 21.4511 92.3917C21.9516 92.3917 22.3807 92.5715 22.7382 92.9311C23.0957 93.291 23.2745 93.7225 23.2745 94.2261C23.2745 94.7297 23.0957 95.1611 22.7382 95.521C22.3807 95.8806 21.9516 96.0604 21.4511 96.0604ZM21.4511 115.807C20.9506 115.807 20.5216 115.627 20.1641 115.267C19.8065 114.907 19.6278 114.476 19.6278 113.972V99.5852C19.6278 99.0816 19.8065 98.6501 20.1641 98.2905C20.5216 97.9306 20.9506 97.7508 21.4511 97.7508C21.9516 97.7508 22.3807 97.9306 22.7382 98.2905C23.0957 98.6501 23.2745 99.0816 23.2745 99.5852V113.972C23.2745 114.476 23.0957 114.907 22.7382 115.267C22.3807 115.627 21.9516 115.807 21.4511 115.807ZM35.9127 97.8229C38.4274 97.9667 40.4948 98.8539 42.1158 100.484C43.8319 102.211 44.7017 104.297 44.7256 106.743V113.684C44.7256 114.38 44.5468 114.907 44.1894 115.267C43.8319 115.627 43.4028 115.807 42.9022 115.807C42.4016 115.807 41.9727 115.627 41.6152 115.267C41.2575 114.907 41.0788 114.392 41.0788 113.72V106.779C41.0788 106.671 41.0849 106.563 41.0969 106.455C41.0252 105.136 40.5129 104.003 39.5595 103.056C38.5227 102.013 37.2714 101.491 35.8055 101.491H35.734C34.2681 101.491 33.0167 102.013 31.98 103.056C31.0266 104.003 30.5143 105.136 30.4426 106.455C30.4546 106.563 30.4607 106.671 30.4607 106.779V113.72C30.4607 114.392 30.2819 114.907 29.9242 115.267C29.5668 115.627 29.1379 115.807 28.6373 115.807C28.1367 115.807 27.7078 115.627 27.3501 115.267C26.9926 114.907 26.8139 114.38 26.8139 113.684V106.743C26.8378 104.297 27.7078 102.211 29.4239 100.484C31.0446 98.8539 33.1121 97.9667 35.6267 97.8229H35.9127ZM60.9748 103.056C59.938 102.013 58.6867 101.491 57.221 101.491C55.7551 101.491 54.5037 102.013 53.4669 103.056C52.4421 104.087 51.9296 105.34 51.9296 106.815C51.9296 108.289 52.4421 109.548 53.4669 110.591C54.5037 111.634 55.7551 112.156 57.221 112.156C58.6867 112.156 59.938 111.634 60.9748 110.591C61.8567 109.704 62.3631 108.661 62.4943 107.462V106.779C62.4943 106.671 62.5002 106.563 62.5121 106.455C62.4407 105.136 61.9282 104.003 60.9748 103.056ZM66.1411 114.044C66.1411 114.739 65.9621 115.207 65.6047 115.447C65.2472 115.687 64.818 115.807 64.3177 115.807C63.8171 115.807 63.388 115.687 63.0305 115.447C62.6731 115.207 62.4943 114.751 62.4943 114.08C60.9689 115.231 59.2111 115.807 57.221 115.807C54.7539 115.807 52.6506 114.931 50.9106 113.181C49.1709 111.431 48.3009 109.314 48.3009 106.833C48.3009 104.351 49.1709 102.235 50.9106 100.484C52.6506 98.734 54.7539 97.8587 57.221 97.8587C59.6878 97.8587 61.7911 98.734 63.5311 100.484C65.2472 102.211 66.1172 104.297 66.1411 106.743V114.044ZM78.7257 97.8229C79.2261 97.8229 79.6552 98.0027 80.0127 98.3623C80.3701 98.722 80.5489 99.1537 80.5489 99.6571C80.5489 100.161 80.3701 100.592 80.0127 100.952C79.6552 101.312 79.2261 101.491 78.7257 101.491H78.7077C77.242 101.491 75.9907 102.013 74.9539 103.056C74.0005 104.003 73.488 105.136 73.4165 106.455C73.4285 106.563 73.4343 106.671 73.4343 106.779V113.72C73.4343 114.392 73.2556 114.907 72.8982 115.267C72.5405 115.627 72.1116 115.807 71.611 115.807C71.1104 115.807 70.6815 115.627 70.324 115.267C69.9663 114.907 69.7876 114.38 69.7876 113.684V106.743C69.8115 104.297 70.6815 102.211 72.3976 100.484C74.0422 98.8299 76.1514 97.9426 78.7257 97.8229ZM84.3388 100.484C84.1956 100.221 84.1242 99.933 84.1242 99.6212C84.1242 99.1176 84.2971 98.692 84.6426 98.3444C84.9881 97.9966 85.4111 97.8229 85.9117 97.8229C86.4004 97.8229 86.8234 97.9966 87.1809 98.3444C87.3715 98.5363 87.5086 98.758 87.592 99.0097L93.0621 109.998L98.5142 99.0097C98.5978 98.77 98.7407 98.548 98.9433 98.3444C99.2888 97.9966 99.7119 97.8229 100.212 97.8229C100.701 97.8229 101.118 97.9966 101.464 98.3444C101.821 98.692 102 99.1176 102 99.6212C102 99.909 101.941 100.173 101.821 100.412L91.2387 121.795C91.1197 122.035 90.9588 122.257 90.7562 122.461C90.3987 122.82 89.9757 123 89.487 123C88.9864 123 88.5634 122.82 88.2176 122.461C87.8721 122.113 87.6992 121.693 87.6992 121.202C87.6992 120.818 87.7768 120.47 87.9316 120.159L91.06 114.008L84.3388 100.484Z" fill="url(#paint0_linear)" />
  <path d="M106 91.8494C106 91.3417 106.181 90.9067 106.542 90.5438C106.903 90.1813 107.336 90 107.842 90H122.108C122.614 90 123.047 90.1813 123.409 90.5438C123.77 90.9067 123.95 91.3417 123.95 91.8494C123.95 92.3569 123.77 92.7922 123.409 93.1547C123.047 93.5173 122.614 93.6988 122.108 93.6988H109.684V97.7963H115.065C115.571 97.7963 116.004 97.9776 116.366 98.3404C116.727 98.7029 116.907 99.138 116.907 99.6457C116.907 100.153 116.727 100.588 116.366 100.951C116.004 101.314 115.571 101.495 115.065 101.495H109.684V114.151C109.684 114.658 109.503 115.093 109.142 115.456C108.781 115.819 108.347 116 107.842 116C107.336 116 106.903 115.819 106.542 115.456C106.181 115.093 106 114.658 106 114.151V91.8494ZM129.765 102.021C129.103 101.719 128.375 101.568 127.58 101.568C126.099 101.568 124.835 102.093 123.788 103.145C122.74 104.185 122.217 105.448 122.217 106.934C122.217 108.421 122.74 109.69 123.788 110.742C124.835 111.794 126.099 112.319 127.58 112.319C129.049 112.319 130.307 111.8 131.354 110.76C131.366 110.748 131.378 110.736 131.39 110.724C131.739 110.373 132.167 110.198 132.673 110.198C133.178 110.198 133.612 110.379 133.973 110.742C134.334 111.093 134.515 111.522 134.515 112.029C134.515 112.537 134.334 112.972 133.973 113.335C133.961 113.347 133.949 113.359 133.937 113.371C132.191 115.124 130.072 116 127.58 116C125.088 116 122.963 115.118 121.205 113.353C119.448 111.588 118.569 109.455 118.569 106.953C118.569 104.45 119.448 102.317 121.205 100.552C122.963 98.7875 125.088 97.9051 127.58 97.9051C130.072 97.9051 132.191 98.7816 133.937 100.534L133.919 100.552C133.919 100.564 133.925 100.57 133.937 100.57C134.286 100.921 134.46 101.35 134.46 101.858C134.46 102.353 134.286 102.776 133.937 103.127L128.772 108.276C128.411 108.627 127.977 108.802 127.472 108.802C126.954 108.802 126.514 108.627 126.153 108.276C125.804 107.914 125.63 107.472 125.63 106.953C125.63 106.445 125.804 106.01 126.153 105.647L129.765 102.021ZM144.718 97.869C145.223 97.869 145.651 98.0441 146 98.3948C146.349 98.7452 146.524 99.1743 146.524 99.6821C146.524 100.178 146.349 100.607 146 100.969C145.651 101.32 145.223 101.495 144.718 101.495C144.465 101.495 144.248 101.586 144.068 101.767C143.899 101.936 143.815 102.148 143.815 102.402C143.815 102.655 143.899 102.873 144.068 103.054C144.248 103.224 144.465 103.308 144.718 103.308C146.463 103.308 147.95 103.931 149.178 105.176C150.418 106.409 151.038 107.901 151.038 109.654C151.038 111.407 150.418 112.906 149.178 114.151C147.95 115.383 146.463 116 144.718 116C142.972 116 141.479 115.383 140.239 114.151C139.011 112.906 138.397 111.407 138.397 109.654C138.397 109.146 138.572 108.717 138.921 108.367C139.282 108.016 139.71 107.841 140.203 107.841C140.709 107.841 141.136 108.016 141.485 108.367C141.834 108.717 142.009 109.146 142.009 109.654C142.009 110.404 142.274 111.044 142.803 111.576C143.333 112.108 143.971 112.374 144.718 112.374C145.464 112.374 146.102 112.108 146.632 111.576C147.162 111.044 147.426 110.404 147.426 109.654C147.426 108.905 147.162 108.264 146.632 107.732C146.102 107.2 145.464 106.934 144.718 106.934C143.466 106.934 142.4 106.493 141.521 105.611C140.642 104.716 140.203 103.647 140.203 102.402C140.203 101.145 140.642 100.075 141.521 99.1924C142.4 98.31 143.466 97.869 144.718 97.869ZM154.469 97.8326V94.3878C154.469 93.8801 154.65 93.4448 155.011 93.0823C155.372 92.7197 155.806 92.5384 156.311 92.5384C156.817 92.5384 157.25 92.7197 157.612 93.0823C157.973 93.4448 158.153 93.8801 158.153 94.3878V97.8326H160.158C160.663 97.8326 161.097 98.0139 161.458 98.3765C161.819 98.739 162 99.1743 162 99.6821C162 100.19 161.819 100.625 161.458 100.987C161.097 101.35 160.663 101.531 160.158 101.531H158.153V114.151C158.153 114.658 157.973 115.093 157.612 115.456C157.25 115.819 156.817 116 156.311 116C155.806 116 155.372 115.819 155.011 115.456C154.65 115.093 154.469 114.658 154.469 114.151V101.531H152.393C151.887 101.531 151.454 101.35 151.092 100.987C150.731 100.625 150.551 100.19 150.551 99.6821C150.551 99.1743 150.731 98.739 151.092 98.3765C151.454 98.0139 151.887 97.8326 152.393 97.8326H154.469Z" fill="white" />
  <path fill-rule="evenodd" clip-rule="evenodd" d="M43 9.65608C43 4.32318 47.3496 0 52.715 0H58.9326V26.942C54.8737 28.2452 51.9378 32.0319 51.9378 36.5C51.9378 40.9681 54.8737 44.7548 58.9326 46.058V73H44.943C43.8699 73 43 72.1354 43 71.0688V9.65608ZM71.5929 39.7831C70.5821 42.6884 68.2676 44.9889 65.3446 45.9935V73H108.285C113.65 73 118 68.6768 118 63.3439V39.7831H102.845V52.5291C102.845 57.862 98.4949 62.1852 93.1295 62.1852H80.5V39.7831H71.5929ZM71.6578 33.4101H80.5V11.0079H100.902C101.975 11.0079 102.845 11.8726 102.845 12.9392V33.4101H118V1.93122C118 0.864635 117.13 0 116.057 0H65.3446V27.0065C68.3319 28.0333 70.6839 30.4138 71.6578 33.4101Z" fill="url(#paint1_linear)" />
  <defs>
    <linearGradient id="paint0_linear" x1="80.4576" y1="82.8124" x2="80.4576" y2="125.27" gradientUnits="userSpaceOnUse">
      <stop stop-color="#FF512F" />
      <stop offset="1" stop-color="#DF2672" />
    </linearGradient>
    <linearGradient id="paint1_linear" x1="56.2124" y1="5.40741" x2="110.31" y2="73.3213" gradientUnits="userSpaceOnUse">
      <stop stop-color="#FF512F" />
      <stop offset="1" stop-color="#DF2672" />
    </linearGradient>
  </defs>
</svg>
