<svg xmlns="http://www.w3.org/2000/svg" width="142" height="39" fill="none" viewBox="0 0 142 39">
  <path fill="url(#paint0_linear)" d="M55.975 26.75a.938.938 0 01-.688-.287.942.942 0 01-.287-.69V13.987c0-.268.096-.498.287-.69a.938.938 0 01.688-.288l2.85-.009a2.89 2.89 0 012.123.882c.593.587.89 1.296.89 2.127 0 .639-.172 1.207-.517 1.705.364.211.705.48 1.024.806.943.939 1.415 2.072 1.415 3.401 0 1.335-.472 2.476-1.415 3.421-.938.94-2.072 1.409-3.405 1.409h-2.965zm2.85-9.649c.3 0 .555-.105.765-.316.21-.21.316-.47.316-.776 0-.294-.105-.546-.316-.757a1.026 1.026 0 00-.765-.326h-1.874v2.175h1.874zm.115 7.724c.803 0 1.486-.285 2.047-.853a2.799 2.799 0 00.85-2.05c0-.793-.283-1.473-.85-2.042a2.767 2.767 0 00-2.047-.853h-1.99v5.798h1.99zm7.536-8.596a.938.938 0 01-.689-.287.942.942 0 01-.286-.69c0-.269.095-.498.286-.69a.938.938 0 01.689-.288c.268 0 .497.096.689.288a.942.942 0 01.286.69.942.942 0 01-.286.69.938.938 0 01-.689.287zm0 10.522a.938.938 0 01-.689-.288.942.942 0 01-.286-.69v-7.666c0-.268.095-.498.286-.69a.938.938 0 01.689-.287c.268 0 .497.096.689.288a.941.941 0 01.286.69v7.665a.942.942 0 01-.286.69.938.938 0 01-.689.288zm7.737-9.583c1.345.077 2.451.55 3.318 1.419.918.92 1.384 2.031 1.396 3.334v3.699c0 .37-.095.651-.286.843a.938.938 0 01-.689.288.938.938 0 01-.688-.288c-.192-.192-.287-.466-.287-.824V21.94c0-.057.003-.115.01-.172a2.675 2.675 0 00-.823-1.811 2.734 2.734 0 00-2.009-.834h-.038c-.784 0-1.454.278-2.008.834a2.675 2.675 0 00-.823 1.81c.007.058.01.116.01.173v3.7c0 .357-.096.631-.287.823a.938.938 0 01-.689.288.939.939 0 01-.688-.288c-.191-.192-.287-.473-.287-.843v-3.699c.013-1.303.478-2.415 1.396-3.334.867-.87 1.974-1.342 3.319-1.419h.153zm13.408 2.789a2.734 2.734 0 00-2.009-.834c-.784 0-1.453.278-2.008.834a2.73 2.73 0 00-.822 2.002c0 .786.274 1.457.822 2.013a2.734 2.734 0 002.008.833c.785 0 1.454-.277 2.009-.833a2.725 2.725 0 00.813-1.668v-.364c0-.057.003-.115.01-.172a2.674 2.674 0 00-.823-1.811zm2.764 5.855c0 .37-.096.62-.288.747-.19.128-.42.192-.688.192-.268 0-.497-.064-.689-.192-.19-.128-.286-.37-.286-.728-.816.613-1.757.92-2.822.92-1.32 0-2.445-.467-3.376-1.4-.93-.932-1.396-2.06-1.396-3.382s.466-2.45 1.396-3.383c.931-.932 2.056-1.399 3.376-1.399 1.32 0 2.445.467 3.376 1.4.918.92 1.384 2.031 1.397 3.334v3.89zm6.732-8.644c.268 0 .497.096.689.288a.942.942 0 01.287.69.942.942 0 01-.287.69.938.938 0 01-.689.287h-.01c-.784 0-1.453.278-2.008.834a2.674 2.674 0 00-.822 1.81c.006.058.01.116.01.173v3.7c0 .357-.096.631-.288.823a.939.939 0 01-.688.288.938.938 0 01-.689-.288c-.191-.192-.287-.473-.287-.843v-3.699c.013-1.303.479-2.415 1.397-3.334.88-.882 2.008-1.355 3.385-1.419zm3.003 1.419a.941.941 0 01-.115-.46c0-.269.093-.496.278-.68a.92.92 0 01.679-.279c.261 0 .487.093.679.278.102.102.175.22.219.355l2.927 5.855 2.917-5.855a.936.936 0 01.229-.355.922.922 0 01.679-.278c.262 0 .485.093.67.278a.912.912 0 01.287.68.927.927 0 01-.096.422l-5.662 11.394a1.329 1.329 0 01-.258.354.926.926 0 01-.679.288.907.907 0 01-.679-.288.914.914 0 01-.277-.67c0-.205.041-.39.124-.556l1.674-3.277-3.596-7.206z"/>
  <path fill="#fff" d="M111.5 13.987c0-.268.096-.498.287-.69a.94.94 0 01.689-.288h7.555a.94.94 0 01.689.288.942.942 0 01.286.69.942.942 0 01-.286.69.94.94 0 01-.689.287h-6.58v2.166h2.85c.268 0 .498.096.689.288a.943.943 0 01.287.69.943.943 0 01-.287.69.939.939 0 01-.689.287h-2.85v6.688a.94.94 0 01-.287.69.936.936 0 01-.688.288.94.94 0 01-.689-.288.943.943 0 01-.287-.69V13.987zm12.586 5.376a2.762 2.762 0 00-1.157-.24c-.785 0-1.454.278-2.009.834a2.716 2.716 0 00-.832 2.002c0 .786.278 1.457.832 2.013a2.734 2.734 0 002.009.833c.778 0 1.444-.274 1.998-.824l.02-.019a.921.921 0 01.679-.278c.267 0 .497.096.688.288a.912.912 0 01.287.68.943.943 0 01-.287.69l-.019.02c-.925.926-2.047 1.389-3.366 1.389-1.32 0-2.445-.467-3.376-1.4-.931-.932-1.396-2.06-1.396-3.382s.465-2.45 1.396-3.383c.931-.932 2.056-1.399 3.376-1.399 1.319 0 2.441.464 3.366 1.39l-.01.01c0 .006.004.009.01.009a.926.926 0 01.277.68.914.914 0 01-.277.671l-2.735 2.722a.955.955 0 01-.689.277.966.966 0 01-.698-.277.97.97 0 01-.277-.7c0-.268.092-.498.277-.69l1.913-1.916zm7.918-2.195c.268 0 .494.093.679.278a.926.926 0 01.278.68.947.947 0 01-.278.68.923.923 0 01-.679.279.469.469 0 00-.344.143.457.457 0 00-.134.336c0 .134.045.25.134.345.096.09.21.134.344.134.925 0 1.712.329 2.362.987a3.21 3.21 0 01.985 2.367c0 .926-.328 1.718-.985 2.376a3.213 3.213 0 01-2.362.978 3.244 3.244 0 01-2.371-.978 3.256 3.256 0 01-.976-2.376.945.945 0 01.956-.958c.268 0 .495.092.679.277a.927.927 0 01.278.68c0 .397.14.735.421 1.017.28.28.618.421 1.013.421.396 0 .733-.14 1.014-.421.281-.282.421-.62.421-1.016s-.14-.735-.421-1.016a1.38 1.38 0 00-1.014-.422 2.3 2.3 0 01-1.692-.699 2.331 2.331 0 01-.699-1.696c0-.665.233-1.23.699-1.696a2.3 2.3 0 011.692-.7zm5.164-.019v-1.82c0-.269.096-.499.287-.69a.94.94 0 01.689-.288.94.94 0 01.689.287.942.942 0 01.286.69v1.821h1.062c.268 0 .497.096.688.287a.94.94 0 01.287.69.939.939 0 01-.287.69.936.936 0 01-.688.288h-1.062v6.67a.942.942 0 01-.286.69.94.94 0 01-.689.287.94.94 0 01-.689-.288.943.943 0 01-.287-.69v-6.669h-1.099a.938.938 0 01-.689-.288.943.943 0 01-.287-.69c0-.268.096-.498.287-.69a.938.938 0 01.689-.287h1.099z"/>
  <path fill="url(#paint1_linear)" fill-rule="evenodd" d="M0 5.159C0 2.309 2.32 0 5.181 0h3.316v14.394a5.37 5.37 0 00-3.73 5.106 5.37 5.37 0 003.73 5.106V39h-7.46A1.034 1.034 0 010 37.968V5.158zm15.25 16.095a5.392 5.392 0 01-3.333 3.318V39H34.82C37.68 39 40 36.69 40 33.841V21.254h-8.083v6.81c0 2.849-2.32 5.158-5.181 5.158H20V21.254h-4.75zm.034-3.405H20V5.881h10.88c.573 0 1.037.462 1.037 1.032v10.936H40V1.032C40 .462 39.536 0 38.964 0H11.917v14.428a5.39 5.39 0 013.367 3.421z" clip-rule="evenodd"/>
  <defs>
    <linearGradient id="paint0_linear" x1="98.044" x2="98.044" y1="9.17" y2="31.793" gradientUnits="userSpaceOnUse">
      <stop stop-color="#FF512F"/>
      <stop offset="1" stop-color="#DF2672"/>
    </linearGradient>
    <linearGradient id="paint1_linear" x1="7.047" x2="35.959" y1="2.889" y2="39.123" gradientUnits="userSpaceOnUse">
      <stop stop-color="#FF512F"/>
      <stop offset="1" stop-color="#DF2672"/>
    </linearGradient>
  </defs>
</svg>
