<svg xmlns="http://www.w3.org/2000/svg" width="134" height="158" fill="none" viewBox="0 0 134 158">
  <path fill="url(#paint0_linear)" fill-rule="evenodd" d="M2.5 32.425c-1.38-7.207 3.364-14.174 10.598-15.56l8.384-1.606 6.976 36.41c-5.135 2.81-8.113 8.686-6.956 14.724 1.157 6.038 6.096 10.398 11.906 11.11l6.976 36.41-18.862 3.614a2.661 2.661 0 01-3.12-2.108L2.5 32.425zm46.352 33.328a13.883 13.883 0 01-6.816 10.007l6.993 36.497 57.896-11.093c7.234-1.386 11.979-8.352 10.598-15.56l-6.101-31.84-20.434 3.915 3.3 17.225c1.382 7.207-3.363 14.174-10.597 15.56l-17.029 3.262-5.8-30.274-12.01 2.3zm-1.562-8.63L59.21 54.84l-5.8-30.275 27.507-5.27a2.662 2.662 0 013.12 2.107l5.3 27.665 20.434-3.915-8.151-42.541a2.663 2.663 0 00-3.12-2.108l-68.374 13.1L37.12 50.1a13.88 13.88 0 0110.17 7.023z" clip-rule="evenodd"/>
  <path fill="url(#paint1_linear)" d="M12.883 144.213a1.295 1.295 0 01-.91-.508 1.355 1.355 0 01-.293-1.018l1.784-16.663c.04-.379.208-.69.502-.933.293-.242.626-.344.997-.304l3.948.409c1.147.123 2.083.643 2.806 1.561.733.919 1.036 1.965.91 3.139-.096.903-.421 1.682-.973 2.335.471.352.903.782 1.295 1.29 1.165 1.467 1.646 3.14 1.445 5.018-.202 1.888-1.028 3.43-2.477 4.627-1.44 1.189-3.083 1.684-4.928 1.487l-4.106-.44zm5.407-13.219c.415.044.784-.067 1.107-.334.324-.266.509-.616.555-1.05a1.484 1.484 0 00-.323-1.117 1.414 1.414 0 00-1.01-.574l-2.596-.278-.329 3.075 2.596.278zm-1.01 10.936c1.113.119 2.1-.182 2.963-.903.872-.719 1.369-1.643 1.49-2.772.12-1.12-.17-2.124-.87-3.012-.691-.887-1.593-1.39-2.706-1.509l-2.754-.295-.878 8.196 2.755.295zm11.737-11.034c-.37-.04-.674-.21-.91-.509a1.352 1.352 0 01-.293-1.018c.04-.379.208-.69.502-.933.294-.242.626-.344.997-.304.37.04.674.209.91.508.236.3.333.639.293 1.018a1.35 1.35 0 01-.502.933 1.295 1.295 0 01-.997.305zm-1.592 14.874a1.292 1.292 0 01-.91-.509 1.352 1.352 0 01-.293-1.018l1.16-10.837c.04-.379.208-.69.502-.933.293-.242.626-.344.997-.304.37.04.674.209.91.508.235.3.333.639.293 1.018l-1.16 10.838c-.041.379-.209.69-.502.932a1.295 1.295 0 01-.997.305zm12.164-12.4c1.851.308 3.312 1.14 4.38 2.497 1.133 1.437 1.61 3.077 1.43 4.921l-.56 5.229c-.056.524-.231.907-.525 1.15a1.294 1.294 0 01-.997.304 1.295 1.295 0 01-.91-.508c-.236-.3-.327-.702-.273-1.208l.56-5.229c.009-.081.022-.162.04-.242a3.84 3.84 0 00-.865-2.683c-.684-.868-1.57-1.36-2.655-1.476l-.053-.006c-1.086-.116-2.056.178-2.908.881a3.84 3.84 0 00-1.413 2.439c0 .082-.004.164-.013.245l-.56 5.229c-.053.506-.227.88-.522 1.122a1.294 1.294 0 01-.996.305 1.293 1.293 0 01-.91-.509c-.236-.299-.326-.711-.27-1.234l.56-5.23c.215-1.84 1.027-3.342 2.438-4.507 1.332-1.099 2.935-1.604 4.81-1.512l.212.022zm18.145 5.93c-.684-.868-1.569-1.36-2.654-1.476-1.086-.117-2.056.177-2.908.88-.842.696-1.323 1.599-1.442 2.71-.119 1.11.16 2.099.835 2.966.684.868 1.569 1.361 2.655 1.477 1.086.116 2.055-.177 2.907-.881.725-.598 1.184-1.344 1.378-2.237l.055-.514a2.22 2.22 0 01.04-.243 3.837 3.837 0 00-.866-2.682zm2.942 8.687c-.056.523-.226.861-.51 1.014-.285.152-.612.208-.983.169-.37-.04-.68-.165-.925-.373-.245-.209-.34-.567-.287-1.073-1.223.746-2.571 1.041-4.046.883-1.828-.196-3.315-1.022-4.463-2.479-1.148-1.456-1.622-3.119-1.422-4.989.2-1.869 1.016-3.394 2.446-4.574 1.43-1.181 3.059-1.673 4.887-1.478 1.827.196 3.315 1.022 4.463 2.479 1.132 1.436 1.608 3.076 1.429 4.921l-.589 5.5zm10.632-11.221c.37.039.674.209.91.508.235.299.333.639.292 1.018-.04.379-.208.69-.501.933a1.294 1.294 0 01-.997.304l-.014-.001c-1.086-.117-2.055.177-2.907.881a3.836 3.836 0 00-1.413 2.438c0 .082-.004.164-.013.245l-.56 5.229c-.054.506-.228.88-.522 1.123a1.295 1.295 0 01-.997.304 1.295 1.295 0 01-.91-.508c-.236-.3-.326-.711-.27-1.235l.56-5.229c.215-1.841 1.028-3.343 2.439-4.507 1.352-1.116 2.986-1.617 4.903-1.503zm3.943 2.45a1.367 1.367 0 01-.089-.667c.04-.38.203-.687.487-.921.284-.235.611-.332.982-.292.362.038.662.203.899.493.125.16.21.338.25.534l3.167 8.711 4.925-7.845a1.34 1.34 0 01.372-.467c.284-.234.612-.332.982-.292.362.039.657.203.885.492.237.29.335.625.295 1.004a1.344 1.344 0 01-.197.582l-9.564 15.268a1.948 1.948 0 01-.411.463 1.28 1.28 0 01-.984.305 1.247 1.247 0 01-.897-.507 1.314 1.314 0 01-.283-.989c.031-.289.117-.545.257-.767l2.813-4.385-3.889-10.72z"/>
  <path fill="#fff" d="M92.02 134.382c.04-.369.209-.671.506-.905a1.345 1.345 0 011.012-.292l10.639 1.139c.377.041.686.207.927.499.241.293.342.623.303.992-.04.369-.208.671-.506.905a1.346 1.346 0 01-1.012.292l-9.265-.992-.319 2.977 4.013.43c.377.04.687.207.928.499.24.292.342.623.302.992-.04.369-.208.67-.505.905a1.345 1.345 0 01-1.013.292l-4.013-.43-.984 9.196c-.04.369-.208.67-.506.905a1.34 1.34 0 01-1.012.291 1.34 1.34 0 01-.927-.499 1.286 1.286 0 01-.302-.991l1.734-16.205zm16.932 9.288a4.004 4.004 0 00-1.594-.504c-1.105-.118-2.088.163-2.951.844-.862.672-1.351 1.547-1.467 2.628-.115 1.08.177 2.044.876 2.892.699.848 1.601 1.331 2.705 1.449 1.096.117 2.074-.16 2.936-.832l.03-.023c.288-.227.62-.32.997-.28.377.04.686.207.927.499.242.284.344.61.304.979a1.288 1.288 0 01-.535.928c-1.438 1.135-3.087 1.602-4.945 1.403-1.858-.199-3.375-1.01-4.548-2.432-1.174-1.423-1.663-3.043-1.468-4.861.194-1.818 1.016-3.298 2.464-4.44 1.448-1.142 3.101-1.614 4.96-1.415 1.858.199 3.37 1.005 4.535 2.418l-.014.012c-.001.008.003.013.012.014.233.283.329.609.29.977-.039.36-.202.654-.489.881l-4.252 3.329a1.367 1.367 0 01-1.011.278 1.386 1.386 0 01-.942-.487 1.327 1.327 0 01-.288-1.004 1.31 1.31 0 01.492-.906l2.976-2.347zm11.474-1.823c.377.04.682.202.915.484.233.283.33.609.29.978a1.29 1.29 0 01-.49.893c-.288.227-.62.32-.997.28a.673.673 0 00-.507.146.62.62 0 00-.237.441.667.667 0 00.137.494.7.7 0 00.466.236c1.301.14 2.362.711 3.181 1.713.828.995 1.175 2.129 1.038 3.403-.136 1.273-.715 2.313-1.737 3.119-1.011.797-2.168 1.127-3.47.987-1.302-.139-2.367-.706-3.196-1.701-.819-1.003-1.16-2.141-1.024-3.414.04-.369.203-.667.491-.894.297-.226.629-.319.997-.28.377.041.682.202.915.485.233.282.33.608.291.977a1.893 1.893 0 00.443 1.46c.354.429.809.673 1.365.733a1.983 1.983 0 001.49-.427c.436-.345.684-.789.742-1.333a1.896 1.896 0 00-.443-1.46 1.981 1.981 0 00-1.366-.733c-.933-.1-1.694-.505-2.28-1.217-.586-.72-.831-1.532-.734-2.437a3.162 3.162 0 011.233-2.227c.724-.571 1.553-.806 2.487-.706zm7.275.752l.268-2.503c.039-.369.208-.671.505-.905a1.346 1.346 0 011.012-.292c.377.041.686.207.927.499.242.293.342.623.303.992l-.268 2.503 1.495.16c.377.041.686.207.927.499.241.292.342.623.303.992a1.29 1.29 0 01-.506.905 1.346 1.346 0 01-1.012.292l-1.495-.16-.981 9.169a1.29 1.29 0 01-.506.906 1.35 1.35 0 01-1.012.291 1.344 1.344 0 01-.927-.499 1.291 1.291 0 01-.303-.992l.982-9.169-1.549-.166a1.344 1.344 0 01-.927-.499 1.29 1.29 0 01-.303-.992 1.29 1.29 0 01.506-.905 1.345 1.345 0 011.012-.292l1.549.166z"/>
  <defs>
    <linearGradient id="paint0_linear" x1="19.214" x2="109.915" y1="23.27" y2="100.868" gradientUnits="userSpaceOnUse">
      <stop stop-color="#FF512F"/>
      <stop offset="1" stop-color="#DF2672"/>
    </linearGradient>
    <linearGradient id="paint1_linear" x1="73.801" x2="70.377" y1="125.596" y2="157.578" gradientUnits="userSpaceOnUse">
      <stop stop-color="#FF512F"/>
      <stop offset="1" stop-color="#DF2672"/>
    </linearGradient>
  </defs>
</svg>
