<svg width="40" height="39" viewBox="0 0 40 39" fill="none" xmlns="http://www.w3.org/2000/svg">
<path fill-rule="evenodd" clip-rule="evenodd" d="M0 5.15873C0 2.30965 2.31979 0 5.18135 0H8.49741V14.3937C6.33264 15.0899 4.76684 17.113 4.76684 19.5C4.76684 21.887 6.33264 23.9101 8.49741 24.6063V39H1.03627C0.463938 39 0 38.5381 0 37.9683V5.15873ZM15.2495 21.254C14.7105 22.8061 13.4761 24.0351 11.9171 24.5719V39H34.8187C37.6802 39 40 36.6903 40 33.8413V21.254H31.9171V28.0635C31.9171 30.9126 29.5973 33.2222 26.7358 33.2222H20V21.254H15.2495ZM15.2841 17.8492H20V5.88095H30.8808C31.4532 5.88095 31.9171 6.34289 31.9171 6.9127V17.8492H40V1.03175C40 0.461928 39.5361 0 38.9637 0H11.9171V14.4281C13.5104 14.9767 14.7648 16.2485 15.2841 17.8492Z" fill="url(#paint0_linear)"/>
<defs>
<linearGradient id="paint0_linear" x1="7.04663" y1="2.88889" x2="35.9593" y2="39.1234" gradientUnits="userSpaceOnUse">
<stop stop-color="#FF512F"/>
<stop offset="1" stop-color="#DF2672"/>
</linearGradient>
</defs>
</svg>
