<svg xmlns="http://www.w3.org/2000/svg" width="540" height="110" fill="none" viewBox="0 0 540 110">
  <path fill="url(#paint0_linear)" d="M6.108 85.817c-1.677 0-3.114-.597-4.311-1.793C.599 82.827 0 81.392 0 79.717V6.16c0-1.675.599-3.11 1.796-4.307C2.994.657 4.431.06 6.109.06L23.953 0c5.19 0 9.622 1.834 13.295 5.501 3.712 3.669 5.569 8.094 5.569 13.277 0 3.987-1.078 7.535-3.234 10.645 2.276 1.315 4.411 2.99 6.407 5.024 5.909 5.86 8.863 12.936 8.863 21.23 0 8.332-2.954 15.45-8.863 21.35-5.868 5.86-12.974 8.79-21.318 8.79H6.108zm17.845-60.222c1.877 0 3.474-.657 4.791-1.973 1.317-1.316 1.976-2.93 1.976-4.844 0-1.834-.659-3.409-1.976-4.725-1.317-1.355-2.914-2.033-4.79-2.033H12.215v13.575h11.737zm.719 48.202c5.03 0 9.302-1.774 12.815-5.323 3.553-3.547 5.33-7.814 5.33-12.798 0-4.943-1.777-9.19-5.33-12.738-3.513-3.548-7.785-5.322-12.815-5.322H12.216v36.18h12.456zM71.86 20.154c-1.677 0-3.114-.599-4.311-1.794-1.198-1.197-1.797-2.632-1.797-4.307 0-1.674.599-3.11 1.797-4.306 1.197-1.196 2.634-1.794 4.311-1.794s3.114.598 4.312 1.794c1.197 1.197 1.796 2.632 1.796 4.306 0 1.675-.599 3.11-1.796 4.307-1.198 1.195-2.635 1.794-4.312 1.794zm0 65.663c-1.677 0-3.114-.597-4.311-1.793-1.198-1.197-1.797-2.632-1.797-4.307V31.875c0-1.675.599-3.11 1.797-4.306 1.197-1.196 2.634-1.794 4.311-1.794s3.114.598 4.312 1.794c1.197 1.196 1.796 2.631 1.796 4.306v47.842c0 1.675-.599 3.11-1.796 4.307-1.198 1.195-2.635 1.793-4.312 1.793zm48.446-59.802c8.424.477 15.35 3.428 20.78 8.85 5.749 5.741 8.662 12.678 8.742 20.811V78.76c0 2.313-.598 4.067-1.796 5.264-1.197 1.195-2.635 1.793-4.312 1.793-1.677 0-3.114-.597-4.311-1.793-1.198-1.197-1.797-2.91-1.797-5.144V55.796c0-.359.02-.718.06-1.076-.24-4.386-1.956-8.153-5.15-11.303-3.473-3.469-7.665-5.203-12.576-5.203h-.239c-4.911 0-9.103 1.734-12.576 5.203-3.194 3.15-4.91 6.917-5.15 11.303.04.358.061.717.061 1.076V78.88c0 2.233-.599 3.947-1.797 5.144-1.198 1.195-2.635 1.793-4.312 1.793-1.677 0-3.113-.597-4.312-1.793-1.197-1.197-1.796-2.95-1.796-5.264V55.676c.08-8.133 2.995-15.07 8.743-20.81 5.43-5.423 12.356-8.373 20.78-8.851h.958zm83.956 17.401c-3.473-3.468-7.665-5.202-12.575-5.202-4.911 0-9.102 1.734-12.576 5.203-3.433 3.429-5.15 7.595-5.15 12.499 0 4.903 1.717 9.09 5.15 12.558 3.474 3.47 7.665 5.204 12.576 5.204 4.91 0 9.102-1.734 12.575-5.204 2.955-2.95 4.651-6.419 5.091-10.405v-2.273c0-.359.019-.718.059-1.076-.239-4.386-1.956-8.153-5.15-11.303zm17.307 36.54c0 2.313-.599 3.868-1.797 4.665-1.197.797-2.635 1.196-4.311 1.196-1.677 0-3.115-.398-4.312-1.195-1.198-.798-1.796-2.313-1.796-4.546-5.11 3.828-10.999 5.741-17.666 5.741-8.264 0-15.31-2.91-21.139-8.731-5.828-5.82-8.743-12.858-8.743-21.11 0-8.253 2.915-15.29 8.743-21.11 5.829-5.822 12.875-8.732 21.139-8.732s15.31 2.91 21.139 8.731c5.749 5.741 8.663 12.678 8.743 20.811v24.28zm42.158-53.942c1.676 0 3.114.598 4.311 1.794 1.198 1.196 1.796 2.632 1.796 4.306s-.598 3.11-1.796 4.306c-1.197 1.196-2.635 1.794-4.311 1.794h-.06c-4.91 0-9.102 1.734-12.575 5.203-3.194 3.15-4.911 6.917-5.15 11.303.04.358.059.717.059 1.076V78.88c0 2.233-.599 3.947-1.796 5.144-1.198 1.195-2.635 1.793-4.312 1.793-1.677 0-3.114-.597-4.311-1.793-1.199-1.197-1.797-2.95-1.797-5.264V55.676c.08-8.133 2.994-15.07 8.743-20.81 5.51-5.503 12.575-8.453 21.199-8.851zm18.803 8.851a5.893 5.893 0 01-.718-2.87c0-1.675.579-3.09 1.736-4.246 1.158-1.157 2.575-1.734 4.252-1.734 1.637 0 3.054.577 4.251 1.734a5.587 5.587 0 011.377 2.212l18.325 36.54 18.264-36.54c.28-.797.759-1.535 1.438-2.212 1.157-1.157 2.574-1.734 4.251-1.734 1.637 0 3.035.577 4.192 1.734 1.198 1.156 1.797 2.57 1.797 4.246 0 .957-.2 1.833-.599 2.63l-35.451 71.107a8.487 8.487 0 01-1.617 2.213c-1.197 1.196-2.614 1.794-4.251 1.794-1.677 0-3.094-.598-4.253-1.794-1.157-1.157-1.736-2.552-1.736-4.186 0-1.276.26-2.433.778-3.469l10.48-20.453-22.516-44.972z"/>
  <path fill="#fff" d="M353.792 6.16c0-1.675.599-3.11 1.796-4.307C356.786.658 358.223.06 359.899.06h47.308c1.677 0 3.114.598 4.312 1.793 1.198 1.197 1.797 2.632 1.797 4.307 0 1.674-.599 3.11-1.797 4.305-1.198 1.196-2.635 1.795-4.312 1.795h-41.199v13.515h17.845c1.677 0 3.114.598 4.312 1.794 1.197 1.196 1.796 2.631 1.796 4.306 0 1.675-.599 3.11-1.796 4.306-1.198 1.196-2.635 1.794-4.312 1.794h-17.845v41.742c0 1.675-.599 3.11-1.797 4.307-1.197 1.196-2.635 1.793-4.312 1.793-1.676 0-3.113-.597-4.311-1.793-1.197-1.197-1.796-2.632-1.796-4.306V6.16zm78.806 33.55c-2.195-.998-4.611-1.496-7.246-1.496-4.91 0-9.102 1.734-12.576 5.203-3.473 3.429-5.209 7.595-5.209 12.5 0 4.902 1.736 9.089 5.209 12.557 3.474 3.47 7.666 5.204 12.576 5.204 4.871 0 9.043-1.715 12.516-5.143l.12-.12c1.157-1.156 2.574-1.735 4.251-1.735 1.677 0 3.114.598 4.312 1.794 1.198 1.157 1.797 2.572 1.797 4.247 0 1.674-.599 3.11-1.797 4.305l-.12.12c-5.789 5.781-12.815 8.671-21.079 8.671-8.263 0-15.31-2.91-21.138-8.731-5.829-5.82-8.744-12.858-8.744-21.11 0-8.253 2.915-15.29 8.744-21.11 5.828-5.822 12.875-8.732 21.138-8.732 8.264 0 15.29 2.89 21.079 8.67l-.059.061c0 .04.019.06.059.06 1.158 1.156 1.737 2.572 1.737 4.246 0 1.635-.579 3.03-1.737 4.186l-17.126 16.984c-1.198 1.156-2.635 1.735-4.312 1.735-1.717 0-3.174-.579-4.372-1.735-1.157-1.195-1.736-2.65-1.736-4.365 0-1.675.579-3.11 1.736-4.306l11.977-11.96zm49.584-13.695c1.676 0 3.093.577 4.252 1.734 1.157 1.156 1.736 2.571 1.736 4.246 0 1.634-.579 3.05-1.736 4.246-1.159 1.156-2.576 1.734-4.252 1.734-.839 0-1.558.3-2.156.897-.559.558-.838 1.256-.838 2.093s.279 1.555.838 2.153c.598.558 1.317.837 2.156.837 5.788 0 10.718 2.053 14.791 6.16 4.112 4.067 6.168 8.99 6.168 14.772 0 5.78-2.056 10.724-6.168 14.83-4.073 4.067-9.003 6.1-14.791 6.1-5.789 0-10.74-2.033-14.851-6.1-4.072-4.106-6.109-9.05-6.109-14.83 0-1.675.579-3.09 1.737-4.247 1.197-1.156 2.615-1.734 4.251-1.734 1.677 0 3.095.578 4.253 1.734 1.157 1.157 1.736 2.572 1.736 4.247 0 2.471.879 4.584 2.635 6.339 1.757 1.754 3.872 2.631 6.348 2.631 2.475 0 4.591-.877 6.348-2.631 1.756-1.755 2.634-3.868 2.634-6.34s-.878-4.585-2.634-6.338c-1.757-1.755-3.873-2.632-6.348-2.632-4.153 0-7.685-1.455-10.6-4.366-2.914-2.95-4.372-6.478-4.372-10.585 0-4.146 1.458-7.675 4.372-10.585 2.915-2.91 6.447-4.365 10.6-4.365zm32.336-.12V14.532c0-1.674.599-3.11 1.797-4.306 1.198-1.196 2.635-1.794 4.312-1.794 1.677 0 3.113.598 4.312 1.794 1.197 1.196 1.796 2.632 1.796 4.306v11.363h6.647c1.676 0 3.114.598 4.311 1.794 1.198 1.195 1.797 2.631 1.797 4.306 0 1.674-.599 3.11-1.797 4.305-1.197 1.197-2.635 1.795-4.311 1.795h-6.647v41.623c0 1.674-.599 3.109-1.796 4.306-1.199 1.196-2.635 1.793-4.312 1.793-1.677 0-3.114-.597-4.312-1.793-1.198-1.197-1.797-2.632-1.797-4.306V38.095h-6.886c-1.676 0-3.114-.598-4.311-1.795-1.198-1.196-1.797-2.63-1.797-4.305 0-1.675.599-3.11 1.797-4.306 1.197-1.196 2.635-1.794 4.311-1.794h6.886z"/>
  <defs>
    <linearGradient id="paint0_linear" x1="269.529" x2="269.529" y1="-23.902" y2="117.287" gradientUnits="userSpaceOnUse">
      <stop stop-color="#FF512F"/>
      <stop offset="1" stop-color="#DF2672"/>
    </linearGradient>
  </defs>
</svg>
