<svg xmlns="http://www.w3.org/2000/svg" width="19" height="19" fill="none" viewBox="0 0 19 19">
  <g clip-path="url(#clip0)">
    <path fill="#fff" d="M18.734 1.687L17.422.39a.942.942 0 00-1.313 0L9.562 6.937 2.892.267a.941.941 0 00-1.313 0L.267 1.579a.941.941 0 000 1.313l6.655 6.655L.39 16.109a.942.942 0 000 1.313l1.313 1.312a.941.941 0 001.312 0l6.547-6.547 6.547 6.547a.941.941 0 001.313 0l1.312-1.312a.942.942 0 000-1.313l-6.562-6.547 6.547-6.546c.37-.371.37-.958.015-1.329z"/>
  </g>
  <defs>
    <clipPath id="clip0">
      <path fill="#fff" d="M0 0h19v19H0z"/>
    </clipPath>
  </defs>
</svg>
