<svg width="22" height="22" viewBox="0 0 22 22" fill="none" xmlns="http://www.w3.org/2000/svg">
<g clip-path="url(#clip0)">
<path d="M20.5771 12.1958C20.5057 12.0245 20.3389 11.9127 20.1538 11.9127H15.133V0.458195C15.133 0.205279 14.9278 0 14.6749 0H7.34396C7.09104 0 6.88576 0.205279 6.88576 0.458195V11.9127H1.84579C1.6607 11.9127 1.49391 12.0245 1.42244 12.195C1.35186 12.3663 1.39035 12.5633 1.5214 12.6944L10.6621 21.8653C10.7482 21.9515 10.8646 22 10.9865 22C11.1084 22 11.2248 21.9515 11.3109 21.8662L20.4782 12.6953C20.6092 12.5642 20.6486 12.3672 20.5771 12.1958Z" fill="white"/>
</g>
<defs>
<clipPath id="clip0">
<rect width="22" height="22" fill="white"/>
</clipPath>
</defs>
</svg>
