<svg xmlns="http://www.w3.org/2000/svg" width="200" height="181" fill="none" viewBox="0 0 200 181">
  <path fill="#3F3D56" d="M162.636 72.82c-10.647-7.955-27.323-15.479-45.752-20.641-16.78-4.701-33.146-6.97-46.088-6.391l-.067-1.504c13.096-.586 29.632 1.702 46.562 6.445 18.601 5.21 35.457 12.823 46.248 20.886l-.903 1.205z"/>
  <path fill="#F2F2F2" d="M161.531 78.948a50.073 50.073 0 01-5.087 22.06 50.318 50.318 0 01-23.57 23.337 50.352 50.352 0 01-32.98 3.603 50.325 50.325 0 01-28.057-17.696 50.28 50.28 0 01-10.821-34.768c.038-.583.086-1.162.146-1.738a50.284 50.284 0 0117.339-33.012 50.337 50.337 0 0169.201 3.586 50.282 50.282 0 0113.829 34.628z"/>
  <path fill="#000" d="M157.192 99.406a46.61 46.61 0 01-.748 1.602c-1.471.16-3.018.276-4.643.348-1.346.06-2.73.09-4.145.09-12.356 0-27.227-2.28-42.418-6.534-16.93-4.743-32.247-11.377-43.13-18.681-.37-.249-.734-.498-1.092-.747.038-.583.086-1.162.146-1.738.577.411 1.172.823 1.785 1.235 10.755 7.217 25.918 13.78 42.697 18.48 15.059 4.22 29.79 6.48 42.005 6.48 1.396 0 2.758-.03 4.084-.09a71.27 71.27 0 005.459-.445z" opacity=".1"/>
  <path fill="#3F3D56" d="M147.656 100.242c-12.355 0-27.227-2.28-42.418-6.535-16.93-4.743-32.247-11.377-43.13-18.68-11.11-7.457-16.32-14.805-14.67-20.69 1.65-5.884 9.922-9.454 23.291-10.053l.067 1.504c-6.243.28-11.33 1.207-15.122 2.757-3.782 1.545-6.065 3.631-6.785 6.2-.72 2.567.145 5.535 2.572 8.82 2.434 3.294 6.298 6.729 11.487 10.211 10.753 7.217 25.917 13.78 42.697 18.481 15.059 4.219 29.788 6.48 42.004 6.48 1.396 0 2.757-.03 4.083-.09 6.244-.279 11.332-1.206 15.123-2.756 3.782-1.546 6.065-3.631 6.785-6.2 1.293-4.61-2.615-10.602-11.004-16.87l.903-1.206c4.316 3.225 7.512 6.405 9.498 9.45 2.128 3.264 2.819 6.303 2.054 9.033-1.65 5.885-9.922 9.455-23.291 10.054a93.11 93.11 0 01-4.144.09z"/>
  <path fill="#F2F2F2" d="M112.545 19.588a.576.576 0 10.001-1.153.576.576 0 00-.001 1.153z"/>
  <path fill="#CCC" d="M36.051 44.594a.992.992 0 10.001-1.983.992.992 0 000 1.983zM33.937 84.364a1.959 1.959 0 10.001-3.918 1.959 1.959 0 000 3.918zM151.561 23.774a1.306 1.306 0 100-2.611 1.306 1.306 0 000 2.611zM197.88 78.762a2.12 2.12 0 10.001-4.239 2.12 2.12 0 00-.001 4.24zM181.299 43.704a.91.91 0 10.001-1.819.91.91 0 00-.001 1.819zM70.839 32.532a1.419 1.419 0 100-2.838 1.419 1.419 0 000 2.838zM178.115 73.255a.91.91 0 100-1.82.91.91 0 000 1.82zM1.132 76.823a1.132 1.132 0 100-2.264 1.132 1.132 0 000 2.264zM18.334 58.293a1.226 1.226 0 100-2.452 1.226 1.226 0 000 2.452zM97.068 2.418h-2.42V0H93.35v2.418h-2.421v1.3h2.42v2.418h1.299V3.717h2.42V2.418zM153.199 133.284h-1.519v-1.519h-.815v1.519h-1.52v.814h1.52v1.519h.815v-1.519h1.519v-.814zM188.269 125.511h-1.136v-1.136h-.61v1.136h-1.135v.609h1.135v1.135h.61v-1.135h1.136v-.609z"/>
  <path fill="#000" d="M79.488 74.722a4.227 4.227 0 10-4.229-4.226 4.227 4.227 0 004.229 4.226zM126.191 117.175a4.227 4.227 0 10-4.228-4.226 4.227 4.227 0 004.228 4.226zM111.969 81.253a4.227 4.227 0 100-8.452 4.227 4.227 0 100 8.452zM81.602 104.497a4.227 4.227 0 100-8.453 4.227 4.227 0 100 8.453zM134.648 58.586a4.227 4.227 0 100-8.452 4.227 4.227 0 100 8.452zM148.678 87.208a4.227 4.227 0 100-8.452 4.228 4.228 0 00-4.229 4.226 4.228 4.228 0 004.229 4.226z" opacity=".1"/>
  <path fill="#fff" d="M134.648 42.258a5.572 5.572 0 100-11.141 5.572 5.572 0 00-5.574 5.57 5.572 5.572 0 005.574 5.571z"/>
  <path fill="url(#paint0_linear)" d="M134.648 28.62a7.88 7.88 0 00-7.88 7.876c0 4.35 7.88 18.633 7.88 18.633s7.879-14.284 7.879-18.633a7.88 7.88 0 00-7.879-7.876zm0 11.717a3.65 3.65 0 11-.002-7.3 3.65 3.65 0 01.002 7.3z"/>
  <path fill="#fff" d="M79.466 57.369a5.572 5.572 0 005.573-5.571 5.572 5.572 0 00-5.573-5.57 5.572 5.572 0 00-5.574 5.57 5.572 5.572 0 005.574 5.57z"/>
  <path fill="#3F3D56" d="M79.466 43.73a7.882 7.882 0 00-7.88 7.876c0 4.35 7.88 18.633 7.88 18.633s7.88-14.283 7.88-18.633a7.882 7.882 0 00-7.88-7.876zm0 11.718a3.654 3.654 0 01-3.374-2.253 3.648 3.648 0 012.661-4.977 3.654 3.654 0 014.364 3.58 3.648 3.648 0 01-3.651 3.65z"/>
  <path fill="#fff" d="M149.388 70.212a5.573 5.573 0 005.574-5.57 5.573 5.573 0 00-5.574-5.571 5.573 5.573 0 00-5.574 5.57 5.573 5.573 0 005.574 5.571z"/>
  <path fill="#CCC" d="M149.388 56.574c-2.09 0-4.094.83-5.572 2.307a7.873 7.873 0 00-2.308 5.569c0 4.35 7.88 18.633 7.88 18.633s7.88-14.284 7.88-18.633c0-2.09-.83-4.092-2.308-5.57a7.882 7.882 0 00-5.572-2.306zm0 11.718a3.655 3.655 0 01-3.374-2.254 3.65 3.65 0 016.41-3.424 3.651 3.651 0 01-.454 4.608 3.653 3.653 0 01-2.582 1.07z"/>
  <path fill="#fff" d="M54.898 98.166a5.572 5.572 0 005.574-5.57 5.572 5.572 0 00-5.574-5.571 5.572 5.572 0 00-5.573 5.57 5.572 5.572 0 005.573 5.571z"/>
  <path fill="url(#paint1_linear)" d="M54.898 84.528a7.882 7.882 0 00-7.88 7.876c0 4.35 7.88 18.633 7.88 18.633s7.88-14.284 7.88-18.633a7.874 7.874 0 00-7.88-7.876zm0 11.718a3.653 3.653 0 01-3.581-4.362 3.65 3.65 0 014.979-2.66 3.652 3.652 0 011.976 4.769 3.65 3.65 0 01-3.373 2.253z"/>
  <path fill="#2F2E41" d="M183.192 137.326c1.082-.905-.38-4.432-3.266-7.876-2.885-3.445-6.102-5.503-7.183-4.598-1.082.905.38 4.432 3.265 7.876 2.886 3.445 6.102 5.503 7.184 4.598z"/>
  <path fill="#2F2E41" d="M160.654 144.533c8.99 0 16.278-7.284 16.278-16.269s-7.288-16.269-16.278-16.269c-8.99 0-16.277 7.284-16.277 16.269s7.287 16.269 16.277 16.269z"/>
  <path fill="#2F2E41" d="M167.544 141.032h-4.945v8.855h4.945v-8.855zM157.654 141.032h-4.945v8.855h4.945v-8.855z"/>
  <path fill="#2F2E41" d="M163.423 151.535c2.276 0 4.121-.692 4.121-1.545s-1.845-1.544-4.121-1.544c-2.276 0-4.121.691-4.121 1.544 0 .853 1.845 1.545 4.121 1.545zM153.533 151.329c2.276 0 4.121-.691 4.121-1.544 0-.854-1.845-1.545-4.121-1.545-2.276 0-4.121.691-4.121 1.545 0 .853 1.845 1.544 4.121 1.544z"/>
  <path fill="url(#paint2_linear)" d="M155.543 107.814c1.454-5.851 7.869-9.293 14.33-7.69 6.461 1.603 10.521 7.646 9.067 13.496-1.453 5.85-6.276 5.869-12.736 4.266-6.461-1.604-12.114-4.222-10.661-10.072z"/>
  <path fill="#2F2E41" d="M149.674 124.201c.605-1.274-2.198-3.868-6.259-5.793-4.061-1.925-7.844-2.453-8.448-1.179-.605 1.275 2.197 3.868 6.258 5.794 4.062 1.925 7.844 2.452 8.449 1.178z"/>
  <path fill="#fff" d="M158.221 130.255a5.425 5.425 0 005.427-5.424 5.426 5.426 0 00-5.427-5.424 5.425 5.425 0 100 10.848z"/>
  <path fill="#3F3D56" d="M155.99 124.695a1.808 1.808 0 10.001-3.617 1.808 1.808 0 00-.001 3.617z"/>
  <path fill="#fff" d="M161.625 136.132a3.622 3.622 0 01-.584 2.705 3.623 3.623 0 01-3.739 1.477 3.623 3.623 0 01-2.796-2.887l-.001-.007c-.356-1.965 1.164-2.66 3.13-3.016 1.967-.356 3.634-.237 3.99 1.728z"/>
  <path fill="#3F3D56" d="M127.131 93.702a11.303 11.303 0 00-16.985 2.833 11.294 11.294 0 0011.944 16.868 11.31 11.31 0 005.682-3.021l13.861 11.69a1.046 1.046 0 001.467-.124 1.04 1.04 0 00-.123-1.466l-.001-.001-13.861-11.69a11.291 11.291 0 00-1.984-15.089zm-.893 13.963a8.47 8.47 0 01-13.088-.178 8.455 8.455 0 01-.794-9.369 8.463 8.463 0 018.356-4.318 8.462 8.462 0 015.526 13.865z"/>
  <path fill="#000" d="M114.307 108.676a8.463 8.463 0 01-1.436-11.376 8.474 8.474 0 00-2.067 3.402 8.46 8.46 0 005.5 10.63 8.46 8.46 0 009.038-2.606 8.42 8.42 0 00.426-.549 8.465 8.465 0 01-5.633 2.485 8.476 8.476 0 01-5.828-1.986z" opacity=".3"/>
  <path fill="#2F2E41" d="M55.931 116.89c1.605-4.196 1.838-8.006.52-8.51-1.318-.503-3.688 2.49-5.293 6.687-1.605 4.196-1.837 8.007-.519 8.51 1.318.504 3.688-2.49 5.292-6.687z"/>
  <path fill="#2F2E41" d="M38.5 144.533c8.99 0 16.277-7.284 16.277-16.269S47.49 111.995 38.5 111.995c-8.99 0-16.277 7.284-16.277 16.269s7.288 16.269 16.277 16.269z"/>
  <path fill="#2F2E41" d="M36.027 141.032h-4.945v8.855h4.945v-8.855zM45.917 141.032h-4.945v8.855h4.945v-8.855z"/>
  <path fill="#2F2E41" d="M35.203 151.535c2.276 0 4.12-.692 4.12-1.545s-1.844-1.544-4.12-1.544-4.121.691-4.121 1.544c0 .853 1.845 1.545 4.12 1.545zM45.093 151.329c2.276 0 4.12-.691 4.12-1.544 0-.854-1.844-1.545-4.12-1.545s-4.121.691-4.121 1.545c0 .853 1.845 1.544 4.12 1.544z"/>
  <path fill="#fff" d="M38.912 129.706a5.562 5.562 0 005.563-5.561c0-3.07-2.491-5.56-5.563-5.56a5.562 5.562 0 00-5.564 5.56 5.562 5.562 0 005.564 5.561z"/>
  <path fill="#3F3D56" d="M38.912 125.999a1.854 1.854 0 100-3.708 1.854 1.854 0 000 3.708z"/>
  <path fill="url(#paint3_linear)" d="M22.71 113.134c-1.315-5.883 2.887-11.827 9.384-13.277 6.497-1.45 12.83 2.144 14.144 8.027 1.314 5.883-2.992 8.053-9.489 9.502-6.497 1.45-12.725 1.632-14.04-4.252z"/>
  <path fill="#2F2E41" d="M27.52 124.201c.604-1.274-2.198-3.868-6.26-5.793-4.061-1.925-7.844-2.453-8.448-1.179-.605 1.275 2.197 3.868 6.258 5.793 4.062 1.926 7.844 2.453 8.45 1.179z"/>
  <path fill="#fff" d="M30.504 134.133c0 1.593 4.102 4.737 8.654 4.737s8.82-4.483 8.82-6.075c0-1.592-4.268.309-8.82.309-4.552 0-8.654-.563-8.654 1.029z"/>
  <path fill="#2F2E41" d="M91.307 173.998c8.99 0 16.278-7.284 16.278-16.269s-7.288-16.269-16.278-16.269c-8.99 0-16.277 7.284-16.277 16.269s7.287 16.269 16.277 16.269z"/>
  <path fill="#2F2E41" d="M88.835 170.497H83.89v8.855h4.945v-8.855zM98.725 170.497H93.78v8.855h4.945v-8.855z"/>
  <path fill="#2F2E41" d="M88.01 181c2.276 0 4.121-.692 4.121-1.545s-1.844-1.544-4.12-1.544-4.121.691-4.121 1.544c0 .853 1.845 1.545 4.12 1.545zM97.9 180.794c2.277 0 4.122-.691 4.122-1.544 0-.853-1.845-1.545-4.121-1.545-2.276 0-4.121.692-4.121 1.545s1.845 1.544 4.12 1.544z"/>
  <path fill="#3F3D56" d="M75.517 142.6c-1.314-5.884 2.888-11.828 9.385-13.278 6.497-1.45 12.83 2.144 14.144 8.027 1.314 5.883-2.992 8.053-9.49 9.503-6.496 1.45-12.724 1.631-14.038-4.252z"/>
  <path fill="url(#paint4_linear)" d="M91.373 154.91s1.18-5.193-1.063-4.957c-2.243.237-5.314.355-6.14.355-.827 0-5.55-.591-6.258 2.478-.709 3.068-1.653 6.845.354 9.205 0 0 .709 10.385 3.424 11.094 2.716.708 9.919 1.534 12.517-1.889a8.795 8.795 0 001.535-7.199H94.56l-3.188-9.087z"/>
  <path fill="#000" d="M79.447 162.817s2.007.944 6.14.354v1.77l-6.14-.472v-1.652z" opacity=".1"/>
  <path fill="url(#paint5_linear)" d="M94.448 168.734l-1.336-.706 5.945-11.244a2.804 2.804 0 00-2.408-4.117l-6.239-.168.04-1.511 6.24.168a4.316 4.316 0 013.614 2.138 4.315 4.315 0 01.089 4.196l-5.945 11.244z"/>
  <path fill="url(#paint6_linear)" d="M80.08 168.734l-5.946-11.244a4.315 4.315 0 011.62-5.733 4.315 4.315 0 012.084-.601l6.239-.168.04 1.511-6.239.168a2.802 2.802 0 00-2.349 1.389 2.809 2.809 0 00-.058 2.728l5.945 11.244-1.337.706z"/>
  <path fill="#2F2E41" d="M112.179 161.904c.732-1.384-2.248-4.394-6.656-6.725-4.409-2.331-8.576-3.099-9.308-1.716-.732 1.383 2.248 4.394 6.657 6.725 4.408 2.331 8.575 3.099 9.307 1.716z"/>
  <defs>
    <linearGradient id="paint0_linear" x1="129.544" x2="148.712" y1="30.584" y2="44.508" gradientUnits="userSpaceOnUse">
      <stop stop-color="#FF512F"/>
      <stop offset="1" stop-color="#DF2672"/>
    </linearGradient>
    <linearGradient id="paint1_linear" x1="49.795" x2="68.963" y1="86.492" y2="100.416" gradientUnits="userSpaceOnUse">
      <stop stop-color="#FF512F"/>
      <stop offset="1" stop-color="#DF2672"/>
    </linearGradient>
    <linearGradient id="paint2_linear" x1="159.527" x2="172.791" y1="101.143" y2="121.48" gradientUnits="userSpaceOnUse">
      <stop stop-color="#FF512F"/>
      <stop offset="1" stop-color="#DF2672"/>
    </linearGradient>
    <linearGradient id="paint3_linear" x1="26.698" x2="39.589" y1="100.921" y2="121.14" gradientUnits="userSpaceOnUse">
      <stop stop-color="#FF512F"/>
      <stop offset="1" stop-color="#DF2672"/>
    </linearGradient>
    <linearGradient id="paint4_linear" x1="80.388" x2="98.454" y1="151.706" y2="169.256" gradientUnits="userSpaceOnUse">
      <stop stop-color="#FF512F"/>
      <stop offset="1" stop-color="#DF2672"/>
    </linearGradient>
    <linearGradient id="paint5_linear" x1="92.257" x2="105.064" y1="152.303" y2="161.547" gradientUnits="userSpaceOnUse">
      <stop stop-color="#FF512F"/>
      <stop offset="1" stop-color="#DF2672"/>
    </linearGradient>
    <linearGradient id="paint6_linear" x1="75.48" x2="88.287" y1="152.303" y2="161.547" gradientUnits="userSpaceOnUse">
      <stop stop-color="#FF512F"/>
      <stop offset="1" stop-color="#DF2672"/>
    </linearGradient>
  </defs>
</svg>
