<svg xmlns="http://www.w3.org/2000/svg" width="56" height="56" fill="none" viewBox="0 0 56 56">
  <g clip-path="url(#clip0)">
    <path fill="url(#paint0_linear)" d="M46.067 42.105l-8.939-2.235-.76-3.043c2.391-2.368 4.029-5.621 4.514-8.958a3.507 3.507 0 002.53-2.935l.583-4.667a3.489 3.489 0 00-2.233-3.7l.215-4.394.872-.875c1.314-1.398 2.404-3.794.126-7.27C41.225 1.355 38.253 0 34.137 0c-1.624 0-5.362 0-8.844 2.338C15.353 2.546 14 7.163 14 11.667c0 1.047.254 3.406.422 4.83a3.503 3.503 0 00-2.417 3.773l.583 4.666a3.511 3.511 0 002.807 3.003c.483 3.209 2.037 6.356 4.291 8.685l-.812 3.25-8.939 2.236A13.087 13.087 0 000 54.833C0 55.477.523 56 1.167 56h53.666c.644 0 1.167-.527 1.167-1.171 0-6.03-4.083-11.261-9.933-12.724z"/>
  </g>
  <defs>
    <linearGradient id="paint0_linear" x1="21.399" x2="139.292" y1="-37" y2="42.982" gradientUnits="userSpaceOnUse">
      <stop stop-color="#FF512F"/>
      <stop offset="1" stop-color="#DF2672"/>
    </linearGradient>
    <clipPath id="clip0">
      <path fill="#fff" d="M0 0h56v56H0z"/>
    </clipPath>
  </defs>
</svg>
