<svg width="40" height="26" viewBox="0 0 40 26" fill="none" xmlns="http://www.w3.org/2000/svg">
<path d="M30.9687 0.155762C25.8617 0.155762 21.8292 4.29647 21.8292 9.40352C21.8292 14.5106 26.0236 18.6513 31.1306 18.6513C31.1817 18.6513 31.2588 18.6443 31.3099 18.6435C29.2906 20.2514 26.7544 21.2204 23.9783 21.2204C22.7012 21.2204 21.6733 22.256 21.6733 23.5323C21.6733 24.8087 22.4951 25.8443 23.7723 25.8443C32.8373 25.8434 40 18.4686 40 9.40352C40 9.40179 40 9.40005 40 9.39746C40 4.29301 36.074 0.155762 30.9687 0.155762Z" fill="url(#paint0_linear)"/>
<path d="M9.30837 0.155762C4.20132 0.155762 0.161922 4.29647 0.161922 9.40352C0.161922 14.5106 4.35285 18.6513 9.46076 18.6513C9.51185 18.6513 9.58718 18.6443 9.63827 18.6435C7.61901 20.2514 5.08194 21.2204 2.30588 21.2204C1.02868 21.2204 0 22.256 0 23.5323C0 24.8087 0.834722 25.8443 2.11192 25.8443C11.177 25.8434 18.3526 18.4686 18.3526 9.40352C18.3526 9.40179 18.3526 9.40005 18.3526 9.39746C18.3526 4.29301 14.4137 0.155762 9.30837 0.155762Z" fill="url(#paint1_linear)"/>
<defs>
<linearGradient id="paint0_linear" x1="24.9019" y1="2.05861" x2="44.2507" y2="18.9257" gradientUnits="userSpaceOnUse">
<stop stop-color="#FF512F"/>
<stop offset="1" stop-color="#DF2672"/>
</linearGradient>
<linearGradient id="paint1_linear" x1="3.23311" y1="2.05861" x2="22.5857" y2="18.9528" gradientUnits="userSpaceOnUse">
<stop stop-color="#FF512F"/>
<stop offset="1" stop-color="#DF2672"/>
</linearGradient>
</defs>
</svg>
