<svg width="32" height="35" viewBox="0 0 32 35" fill="none" xmlns="http://www.w3.org/2000/svg">
  <g clip-path="url(#clip0)">
    <path d="M11.6666 25.6842V32.4479C11.6666 32.9204 11.944 33.339 12.3546 33.4877C12.4573 33.5242 12.5626 33.5417 12.6666 33.5417C12.9786 33.5417 13.28 33.3813 13.472 33.0954L17.0893 27.7113L11.6666 25.6842Z" fill="url(#paint0_linear)" />
    <path d="M31.5796 0.201953C31.2729 -0.0357558 30.8702 -0.0678391 30.5369 0.123203L0.536904 17.2586C0.182238 17.4613 -0.0270956 17.8755 0.00223769 18.3115C0.0329044 18.749 0.298238 19.1224 0.675571 19.2638L9.01557 22.3817L26.7769 5.77133L13.0329 23.8824L27.0102 29.1076C27.1142 29.1455 27.2236 29.1659 27.3329 29.1659C27.5142 29.1659 27.6942 29.1119 27.8529 29.007C28.1062 28.8378 28.2782 28.5534 28.3222 28.234L31.9889 1.25487C32.0436 0.846536 31.8862 0.441119 31.5796 0.201953Z" fill="url(#paint1_linear)" />
  </g>
  <defs>
    <linearGradient id="paint0_linear" x1="12.6219" y1="26.2662" x2="18.5104" y2="31.2318" gradientUnits="userSpaceOnUse">
      <stop stop-color="#FF512F" />
      <stop offset="1" stop-color="#DF2672" />
    </linearGradient>
    <linearGradient id="paint1_linear" x1="5.63684" y1="2.15962" x2="26.8931" y2="30.656" gradientUnits="userSpaceOnUse">
      <stop stop-color="#FF512F" />
      <stop offset="1" stop-color="#DF2672" />
    </linearGradient>
    <clipPath id="clip0">
      <rect width="32" height="35" fill="white" />
    </clipPath>
  </defs>
</svg>
