<svg xmlns="http://www.w3.org/2000/svg" width="32" height="35" fill="none" viewBox="0 0 32 35">
  <g clip-path="url(#clip0)">
    <path fill="#fff" d="M11.667 25.684v6.764c0 .472.277.891.688 1.04a.93.93 0 00.312.054c.312 0 .613-.16.805-.447l3.617-5.384-5.422-2.027zM31.58.202a.929.929 0 00-1.043-.079l-30 17.136c-.355.202-.564.616-.535 1.052.031.438.296.811.674.953l8.34 3.118 17.761-16.61-13.744 18.11 13.977 5.226a.94.94 0 00.843-.1c.253-.17.425-.455.47-.774l3.666-26.98a1.143 1.143 0 00-.41-1.052z"/>
  </g>
  <defs>
    <clipPath id="clip0">
      <path fill="#fff" d="M0 0h32v35H0z"/>
    </clipPath>
  </defs>
</svg>
