<svg xmlns="http://www.w3.org/2000/svg" width="243" height="153" fill="none" viewBox="0 0 243 153">
  <g clip-path="url(#clip0)">
    <path fill="#CCC" d="M231.722 153H26.337a6.88 6.88 0 01-4.87-2.021 6.904 6.904 0 01-2.017-4.878c74.453-8.669 147.505-8.669 219.159 0 0 1.83-.725 3.584-2.017 4.878a6.88 6.88 0 01-4.87 2.021z"/>
    <path fill="#E6E6E6" d="M238.609 146.507l-219.159-.406 25.4-42.816.122-.203V8.722a8.734 8.734 0 012.55-6.168A8.703 8.703 0 0153.676 0h149.49a8.697 8.697 0 018.043 5.384 8.727 8.727 0 01.663 3.337v95.011l26.736 42.775z"/>
    <path fill="#fff" d="M53.479 6.088c-.752 0-1.473.3-2.005.833a2.846 2.846 0 00-.831 2.007v86.038c0 .753.3 1.475.831 2.007a2.836 2.836 0 002.005.833H204.58a2.837 2.837 0 002.835-2.84V8.928a2.84 2.84 0 00-2.835-2.84H53.479z"/>
    <path fill="#CCC" d="M54.472 109.17a1.217 1.217 0 00-1.104.708l-7.827 17.046a1.217 1.217 0 001.104 1.726h164.586a1.215 1.215 0 001.087-1.762l-8.507-17.045a1.215 1.215 0 00-1.087-.673H54.472z"/>
    <path fill="#fff" d="M128.422 4.667a1.825 1.825 0 001.823-1.826 1.825 1.825 0 00-1.823-1.826 1.825 1.825 0 00-1.823 1.826c0 1.008.816 1.826 1.823 1.826z"/>
    <path fill="#CCC" d="M112.245 131.897a1.223 1.223 0 00-1.174.9l-1.963 7.305a1.23 1.23 0 00.209 1.058 1.212 1.212 0 00.964.477h37.336a1.212 1.212 0 00.99-.512c.112-.158.185-.341.213-.533a1.23 1.23 0 00-.055-.571l-2.524-7.305a1.219 1.219 0 00-1.149-.819h-32.847zM211.873 101.662v1.623H44.85l.126-.203v-1.42h166.897zM191.257 105.38a.302.302 0 00-.286.22l-.478 1.779a.29.29 0 00-.004.134.298.298 0 00.29.239h9.092a.3.3 0 00.241-.124.293.293 0 00.051-.13.285.285 0 00-.013-.139l-.614-1.779a.302.302 0 00-.28-.2h-7.999zM177.982 105.38a.302.302 0 00-.286.22l-.478 1.779a.294.294 0 00.051.257.29.29 0 00.235.116h9.092a.3.3 0 00.241-.124.293.293 0 00.051-.13.285.285 0 00-.013-.139l-.615-1.779a.294.294 0 00-.279-.2h-7.999z"/>
    <path fill="#3F3D56" d="M139.521 116.683h.713l-1.425-95.418h-.713l.029 1.904h-15.971l.028-1.904h-.712l-1.425 95.418h.712l.093-6.186h18.579l.092 6.186zm-1.027-68.767h-16.71l.174-11.66h16.362l.174 11.66zm.011.714l.174 11.66h-17.08l.175-11.66h16.731zm.185 12.373l.174 11.66h-17.449l.174-11.66h17.101zm.184 12.373l.175 11.66H121.23l.174-11.66h17.47zm.185 12.374l.174 11.66h-18.188l.174-11.66h17.84zm-.924-61.867l.174 11.66h-16.34l.174-11.66h15.992zm-17.275 85.9l.174-11.66h18.21l.174 11.66H120.86z"/>
    <path fill="#2F2E41" d="M126.609 54.13c6.417 0 11.619-5.211 11.619-11.64 0-6.428-5.202-11.64-11.619-11.64s-11.619 5.212-11.619 11.64c0 6.429 5.202 11.64 11.619 11.64z"/>
    <path fill="#2F2E41" d="M133.444 50.535l-3.474.63 1.127 6.234 3.473-.63-1.126-6.234zM126.497 51.794l-3.473.63 1.126 6.235 3.474-.63-1.127-6.235z"/>
    <path fill="#2F2E41" d="M125.994 59.97c1.24-1.051 1.926-2.281 1.532-2.747-.394-.466-1.718.01-2.958 1.061-1.24 1.052-1.925 2.282-1.532 2.748.394.466 1.718-.01 2.958-1.061zM132.796 58.737c1.24-1.052 1.926-2.282 1.532-2.748-.394-.465-1.718.01-2.958 1.062-1.239 1.051-1.925 2.282-1.532 2.747.394.466 1.718-.009 2.958-1.06z"/>
    <path fill="#fff" d="M125.796 43.621a3.975 3.975 0 003.971-3.978 3.975 3.975 0 00-3.971-3.978 3.975 3.975 0 00-3.971 3.978 3.975 3.975 0 003.971 3.978z"/>
    <path fill="#3F3D56" d="M124.164 39.543c.731 0 1.323-.594 1.323-1.326a1.324 1.324 0 10-2.647 0c0 .732.593 1.326 1.324 1.326z"/>
    <path fill="url(#paint0_linear)" d="M135.775 29.827c.175-4.31-3.532-7.96-8.28-8.153-4.748-.193-8.739 3.144-8.914 7.453-.174 4.31 3.126 5.289 7.874 5.482 4.748.193 9.145-.473 9.32-4.782z"/>
    <path fill="#2F2E41" d="M121.543 41.67c.225-.984-2.127-2.363-5.255-3.081-3.127-.719-5.845-.503-6.07.48-.225.984 2.128 2.363 5.255 3.081 3.128.719 5.845.503 6.07-.48zM144.351 45.47c.225-.984-2.128-2.363-5.255-3.082-3.127-.718-5.845-.503-6.07.481-.225.984 2.128 2.363 5.255 3.081s5.845.503 6.07-.48z"/>
    <path fill="#fff" d="M129.8 47.077a2.647 2.647 0 11-5.209.95l-.001-.005c-.26-1.441.852-1.951 2.291-2.212 1.439-.26 2.659-.174 2.919 1.267z"/>
    <path fill="#2F2E41" d="M87.256 82.025c1.174-3.078 1.344-5.873.38-6.242-.965-.37-2.698 1.826-3.873 4.904-1.174 3.078-1.344 5.873-.38 6.242.965.37 2.699-1.826 3.873-4.904z"/>
    <path fill="#2F2E41" d="M86.257 92.278c1.054-6.505-3.356-12.634-9.849-13.69-6.493-1.055-12.611 3.362-13.665 9.867-1.053 6.505 3.356 12.635 9.85 13.69 6.493 1.056 12.61-3.362 13.664-9.867z"/>
    <path fill="#2F2E41" d="M72.691 99.731h-3.618v6.495h3.618v-6.495zM79.928 99.731H76.31v6.495h3.618v-6.495z"/>
    <path fill="#2F2E41" d="M72.088 107.435c1.665 0 3.016-.507 3.016-1.133s-1.35-1.133-3.016-1.133c-1.665 0-3.015.507-3.015 1.133s1.35 1.133 3.015 1.133zM79.325 107.284c1.665 0 3.015-.508 3.015-1.133 0-.626-1.35-1.133-3.015-1.133s-3.015.507-3.015 1.133c0 .625 1.35 1.133 3.015 1.133z"/>
    <path fill="url(#paint1_linear)" d="M62.947 79.27c-.962-4.315 2.112-8.675 6.866-9.739 4.754-1.063 9.388 1.573 10.35 5.888.961 4.315-2.19 5.906-6.944 6.97-4.754 1.063-9.31 1.196-10.272-3.12z"/>
    <path fill="#2F2E41" d="M66.466 87.387c.442-.935-1.608-2.837-4.58-4.25-2.972-1.411-5.74-1.798-6.182-.864-.443.935 1.608 2.837 4.58 4.25 2.971 1.411 5.74 1.798 6.182.864zM22.927 114.381c6.579 0 11.911-5.342 11.911-11.932 0-6.59-5.332-11.933-11.91-11.933-6.579 0-11.912 5.343-11.912 11.933s5.333 11.932 11.911 11.932z"/>
    <path fill="#2F2E41" d="M21.118 111.814H17.5v6.495h3.618v-6.495zM28.355 111.814h-3.618v6.495h3.618v-6.495z"/>
    <path fill="#2F2E41" d="M20.515 119.517c1.665 0 3.015-.507 3.015-1.133s-1.35-1.133-3.015-1.133-3.015.507-3.015 1.133 1.35 1.133 3.015 1.133zM27.752 119.366c1.665 0 3.015-.507 3.015-1.133s-1.35-1.133-3.015-1.133-3.015.507-3.015 1.133 1.35 1.133 3.015 1.133z"/>
    <path fill="#fff" d="M23.229 103.506a4.075 4.075 0 004.07-4.078 4.075 4.075 0 00-4.07-4.078 4.075 4.075 0 00-4.07 4.078 4.075 4.075 0 004.07 4.078z"/>
    <path fill="#3F3D56" d="M23.229 100.787c.75 0 1.357-.608 1.357-1.359a1.358 1.358 0 10-1.357 1.359z"/>
    <path fill="#E6E6E6" d="M11.373 91.352c-.961-4.315 2.113-8.675 6.867-9.739 4.754-1.063 9.388 1.573 10.35 5.888.961 4.315-2.19 5.906-6.944 6.97-4.754 1.063-9.31 1.196-10.273-3.119z"/>
    <path fill="#2F2E41" d="M31.612 59.82c1.174-3.078 1.345-5.873.38-6.242-.965-.37-2.698 1.826-3.873 4.904-1.174 3.078-1.344 5.873-.38 6.242.965.37 2.699-1.826 3.873-4.904z"/>
    <path fill="#2F2E41" d="M30.614 70.073c1.053-6.505-3.356-12.634-9.85-13.69-6.493-1.055-12.61 3.362-13.665 9.867-1.053 6.506 3.356 12.635 9.85 13.69 6.493 1.056 12.61-3.362 13.665-9.867z"/>
    <path fill="#2F2E41" d="M17.047 77.527H13.43v6.495h3.618v-6.495zM24.284 77.527h-3.618v6.495h3.618v-6.495z"/>
    <path fill="#2F2E41" d="M16.444 85.23c1.666 0 3.016-.507 3.016-1.133s-1.35-1.133-3.016-1.133c-1.665 0-3.015.507-3.015 1.133s1.35 1.133 3.015 1.133zM23.681 85.079c1.666 0 3.016-.507 3.016-1.133s-1.35-1.133-3.016-1.133c-1.665 0-3.015.507-3.015 1.133s1.35 1.133 3.015 1.133z"/>
    <path fill="#fff" d="M19.158 69.22a4.074 4.074 0 004.07-4.08 4.075 4.075 0 00-4.07-4.077 4.074 4.074 0 00-4.07 4.078 4.074 4.074 0 004.07 4.078z"/>
    <path fill="#3F3D56" d="M19.158 66.5c.75 0 1.357-.608 1.357-1.36a1.358 1.358 0 10-2.714 0c0 .752.608 1.36 1.357 1.36z"/>
    <path fill="url(#paint2_linear)" d="M7.303 57.065c-.962-4.315 2.112-8.675 6.866-9.739 4.754-1.063 9.388 1.573 10.35 5.888.962 4.315-2.19 5.906-6.943 6.97-4.754 1.063-9.312 1.196-10.273-3.12z"/>
    <path fill="#2F2E41" d="M10.822 65.182c.442-.935-1.608-2.837-4.58-4.25C3.27 59.522.502 59.135.06 60.069c-.442.935 1.608 2.837 4.58 4.25 2.972 1.411 5.74 1.798 6.182.864z"/>
    <path fill="#fff" d="M13.006 72.467c0 1.168 3.002 3.474 6.332 3.474 3.331 0 6.454-3.288 6.454-4.456 0-1.168-3.123.226-6.454.226-3.33 0-6.332-.412-6.332.756z"/>
    <path fill="url(#paint3_linear)" d="M30.567 22.6a.83.83 0 00-.83.831v34.356a.833.833 0 00.83.831h79.374a.828.828 0 00.829-.83V23.43a.83.83 0 00-.829-.831H30.567z"/>
    <path fill="#fff" d="M51.999 48.678c4.448 0 8.054-3.613 8.054-8.069 0-4.456-3.606-8.068-8.054-8.068s-8.054 3.612-8.054 8.068c0 4.456 3.606 8.069 8.054 8.069zM70.176 39.536a.941.941 0 00-.926.943.944.944 0 00.926.943h25.43a.939.939 0 00.957-.927.946.946 0 00-.958-.96H70.176zM70.176 34.07a.94.94 0 00-.926.943.944.944 0 00.926.944h12.699a.94.94 0 00.958-.928.945.945 0 00-.958-.959H70.176zM70.176 45.262a.941.941 0 00-.926.943.944.944 0 00.926.944h25.43a.94.94 0 00.891-1.29.945.945 0 00-.892-.597H70.176z"/>
    <path fill="#2F2E41" d="M193.675 108.811c.965-.37.794-3.164-.38-6.242s-2.908-5.274-3.873-4.904c-.964.369-.794 3.163.38 6.241 1.175 3.078 2.909 5.274 3.873 4.905z"/>
    <path fill="#2F2E41" d="M201.977 126.52c6.493-1.055 10.903-7.184 9.849-13.689-1.054-6.505-7.172-10.923-13.665-9.867-6.493 1.055-10.903 7.184-9.849 13.689 1.054 6.505 7.172 10.923 13.665 9.867z"/>
    <path fill="#2F2E41" d="M205.496 124.107h-3.618l.708 7.778 2.917-.794-.007-6.984zM197.608 124.127h-3.618l.708 7.778 2.785-.814.125-6.964z"/>
    <path fill="#2F2E41" d="M194.595 132.271c1.661-.122 2.97-.727 2.925-1.351-.046-.624-1.429-1.031-3.09-.909-1.661.122-2.971.726-2.925 1.35.045.624 1.429 1.031 3.09.91z"/>
    <path fill="#fff" d="M199.767 115.799a4.074 4.074 0 004.071-4.078 4.074 4.074 0 00-4.071-4.078 4.074 4.074 0 00-4.07 4.078 4.074 4.074 0 004.07 4.078z"/>
    <path fill="#3F3D56" d="M199.767 113.08c.75 0 1.357-.608 1.357-1.359a1.357 1.357 0 10-2.714 0c0 .751.608 1.359 1.357 1.359z"/>
    <path fill="#2F2E41" d="M214.159 107.547c1.954-2.65 2.865-5.297 2.034-5.911-.831-.615-3.088 1.035-5.042 3.686-1.954 2.65-2.865 5.297-2.034 5.912.83.614 3.088-1.036 5.042-3.687z"/>
    <path fill="#fff" d="M194.257 120.895c0-.963 2.474-2.864 5.219-2.864 2.746 0 5.319 2.71 5.319 3.673 0 .962-2.573-.187-5.319-.187-2.745 0-5.219.34-5.219-.622z"/>
    <path fill="url(#paint4_linear)" d="M233.469 104.881l-65.199-9.055a1.943 1.943 0 01-1.652-2.187l7.33-52.967a1.935 1.935 0 012.183-1.655l65.199 9.055a1.939 1.939 0 011.652 2.187l-7.33 52.967a1.942 1.942 0 01-2.183 1.655z"/>
    <path fill="#fff" d="M210.112 88.35l-33.286-4.622a.675.675 0 01-.123-.027l19.523-25.132a1.108 1.108 0 011.571-.2c.155.122.275.283.347.467l8.029 19.8.385.947 3.554 8.768z"/>
    <path fill="#000" d="M210.111 88.35l-11.364-1.578 6.702-7.343.483-.529.241-.264.385.947 3.553 8.768z" opacity=".2"/>
    <path fill="#fff" d="M228.645 90.925l-28.79-3.999 6.703-7.343.482-.529 8.734-9.57a1.485 1.485 0 011.731-.23c.183.1.344.237.47.402.032.047.061.096.087.146l10.583 21.123zM210.516 67.1a4.983 4.983 0 004.979-4.986 4.983 4.983 0 00-4.979-4.987 4.983 4.983 0 00-4.978 4.987 4.983 4.983 0 004.978 4.987z"/>
    <path fill="#3F3D56" d="M183.27 43.926l-6.027-.837-.835 6.037 6.027.837.835-6.037z"/>
    <path fill="#F2F2F2" d="M211.623 103.645c.962-4.315-2.113-8.675-6.867-9.738-4.754-1.064-9.388 1.572-10.349 5.887-.962 4.315 2.189 5.906 6.943 6.97 4.754 1.063 9.311 1.196 10.273-3.119z"/>
    <path fill="#2F2E41" d="M202.53 132.251c1.661-.121 2.97-.726 2.925-1.35-.046-.624-1.429-1.031-3.09-.909-1.661.121-2.97.726-2.925 1.35.046.624 1.429 1.031 3.09.909z"/>
  </g>
  <defs>
    <linearGradient id="paint0_linear" x1="121.606" x2="130.421" y1="22.627" y2="36.914" gradientUnits="userSpaceOnUse">
      <stop stop-color="#FF512F"/>
      <stop offset="1" stop-color="#DF2672"/>
    </linearGradient>
    <linearGradient id="paint1_linear" x1="65.865" x2="75.329" y1="70.312" y2="85.121" gradientUnits="userSpaceOnUse">
      <stop stop-color="#FF512F"/>
      <stop offset="1" stop-color="#DF2672"/>
    </linearGradient>
    <linearGradient id="paint2_linear" x1="10.221" x2="19.686" y1="48.107" y2="62.916" gradientUnits="userSpaceOnUse">
      <stop stop-color="#FF512F"/>
      <stop offset="1" stop-color="#DF2672"/>
    </linearGradient>
    <linearGradient id="paint3_linear" x1="44.012" x2="61.608" y1="25.268" y2="73.638" gradientUnits="userSpaceOnUse">
      <stop stop-color="#FF512F"/>
      <stop offset="1" stop-color="#DF2672"/>
    </linearGradient>
    <linearGradient id="paint4_linear" x1="180.059" x2="227.272" y1="43.88" y2="110.762" gradientUnits="userSpaceOnUse">
      <stop stop-color="#FF512F"/>
      <stop offset="1" stop-color="#DF2672"/>
    </linearGradient>
    <clipPath id="clip0">
      <path fill="#fff" d="M0 0h243v153H0z"/>
    </clipPath>
  </defs>
</svg>
