<svg xmlns="http://www.w3.org/2000/svg" width="460" height="251" fill="none" viewBox="0 0 460 251">
  <g clip-path="url(#clip0)">
    <path fill="url(#paint0_linear)" d="M133.972 122.594c-10.846 5.015-20.845 11.904-32.151 15.763-13.76 4.697-28.617 4.648-43.156 4.542L0 142.487c11.882 21.351 32.873 37.425 56.574 43.322 9.3 2.317 19.234 3.225 27.435 8.201 10.221 6.203 16.279 17.864 26.669 23.77 11.452 6.504 25.685 4.749 38.448 7.975 16.638 4.178 30.557 16.743 47.527 19.215 16.412 2.388 32.413-5.029 48.32-9.712 56.818-16.73 118.202 1.139 176.849-7.133 2.254-.319 4.654-.749 6.284-2.335 2.094-2.034 2.267-5.317 1.851-8.227-2.09-14.506-15.132-25.166-28.808-30.425-29.135-11.201-61.866-4.165-92.817-8.197-21.257-2.773-41.478-10.757-61.424-18.674-20.885-8.29-42.097-16.424-61.889-27.151-20.118-10.921-26.642-21.794-51.047-10.522z" opacity=".1"/>
    <path fill="#DC9BA3" d="M317.623 199.597s.886 13.291-.886 15.507c0 0 38.971 7.088 43.843 4.873 4.871-2.215 2.657-5.76 0-7.089-2.658-1.329-15.943-6.202-17.715-15.507 0 0 5.758-2.658-12.842.886-18.6 3.545-12.4 1.33-12.4 1.33z"/>
    <path fill="#000" d="M317.623 199.597s.886 13.291-.886 15.507c0 0 38.971 7.088 43.843 4.873 4.871-2.215 2.657-5.76 0-7.089-2.658-1.329-15.943-6.202-17.715-15.507 0 0 5.758-2.658-12.842.886-18.6 3.545-12.4 1.33-12.4 1.33z" opacity=".05"/>
    <path fill="url(#paint1_linear)" d="M165.64 14.506l-.168.08a54.637 54.637 0 00-20.371 16.6c-3.021 3.988-6.732 7.79-10.261 8.419-7.839 1.382-65.476 61.354-51.641 117.17 13.834 55.817 94.544 58.12 94.544 58.12s17.165 2.911 27.014 8.733a18.208 18.208 0 0015.389 1.48c11.727-4.174 31-10.226 39.689-8.365 12.909 2.769 123.556-43.362 123.556-43.362s-46.11-44.305-113.889-43.362c0 0-106.971-74.73-103.282-105.638l-.58-9.875z"/>
    <path fill="#000" d="M165.64 14.506l-.168.08a54.637 54.637 0 00-20.371 16.6c-3.021 3.988-6.732 7.79-10.261 8.419-7.839 1.382-65.476 61.354-51.641 117.17 13.834 55.817 94.544 58.12 94.544 58.12s17.165 2.911 27.014 8.733a18.208 18.208 0 0015.389 1.48c11.727-4.174 31-10.226 39.689-8.365 12.909 2.769 123.556-43.362 123.556-43.362s-46.11-44.305-113.889-43.362c0 0-106.971-74.73-103.282-105.638l-.58-9.875z" opacity=".1"/>
    <path fill="url(#paint2_linear)" d="M165.724 14.4l-11.071 10.633s-8.414 16.393-15.943 17.722c-7.528 1.329-62.885 58.926-49.6 112.536 13.286 53.61 90.786 55.825 90.786 55.825s16.128 2.734 25.619 8.205a18.419 18.419 0 0015.371 1.502c11.288-3.987 29.574-9.707 37.833-7.935 12.4 2.659 118.684-41.647 118.684-41.647s-44.285-42.533-109.384-41.647c0 0-102.742-71.775-99.199-101.46l-3.096-13.735z"/>
    <path fill="#000" d="M239.806 184.449c13.639-13.644 4.568-44.842-20.26-69.681-24.828-24.84-56.011-33.915-69.65-20.27-13.638 13.645-4.567 44.842 20.261 69.682 24.828 24.839 56.011 33.914 69.649 20.269z" opacity=".1"/>
    <path fill="#FFD2D9" d="M165.724 70.667s4.872 7.975 1.772 23.482c-3.1 15.507 7.971 15.507 7.971 15.507h22.143l7.528-19.494-10.628.886s-7.086-1.772-3.986-18.165l-24.8-2.216zM232.152 52.06c-3.387 10.787-7.634 23.924-9.902 30.933l-1.612 4.954-14.614-15.064s.642-1.493 1.603-3.585c2.139-4.634 5.864-12.197 7.697-12.808 0 0-20.371-1.33-26.571 3.544-6.2 4.874-4.429-13.292-4.429-13.292s11.957-.886 16.386-3.544c4.428-2.658 28.342-5.317 28.342-5.317s7.972-1.329 3.1 14.178z"/>
    <path fill="#000" d="M151.996 185.862s37.642-17.279 50.928-14.621l-50.928 14.621zM113.468 145.101s45.614-1.772 70.413 14.178l-70.413-14.178z" opacity=".1"/>
    <path fill="#000" d="M136.053 163.266s35.871-8.861 54.914-5.76l-54.914 5.76z" opacity=".1"/>
    <path fill="#FFD2D9" d="M365.008 182.318l-3.1 22.595-7.971-.886s-.483-.443-1.302-1.187c-2.148-1.892-6.616-5.6-10.894-7.621a13.344 13.344 0 00-4.633-1.382l8.857-13.292a48.981 48.981 0 006.612 1.959c2.335.547 4.724.829 7.121.841a12.989 12.989 0 005.31-1.027z"/>
    <path fill="#E9E9EF" d="M342.865 198.267c-3.985 3.545-22.142-3.987-25.242 7.532l-2.852-10.925-8.782-33.624-1.209-4.63-7.316-.314-83.956-3.585-4.765-.195-2.506-.106 3.325-1.648 22.143-10.979s7.971-.558 18.976-2.069c16.678-2.286 40.3-6.757 53.639-14.763 22.142-13.291 30.556 31.457 30.556 31.457s3.366 11.356 5.935 22.543c1.222 5.317 2.263 10.633 2.657 14.647.376 3.407.261 5.893-.603 6.659z"/>
    <path fill="#000" d="M342.865 198.267c-3.985 3.545-22.142-3.987-25.242 7.532l-2.852-10.925-8.782-33.624-1.209-4.63-7.528-.443-81.131-5.011-5.009-.31-1.541-.093-1.997-.124 24.135-10.855s7.972-.558 18.977-2.069c16.678-2.286 40.299-6.757 53.638-14.763 22.143-13.291 30.557 31.457 30.557 31.457s3.366 11.356 5.934 22.543c1.222 5.317 2.263 10.633 2.657 14.647.372 3.416.257 5.902-.607 6.668z" opacity=".05"/>
    <path fill="#000" d="M352.577 182.504l-7.75 9.091-3.1 3.624a13.339 13.339 0 00-4.632-1.382l8.857-13.292a49.013 49.013 0 006.625 1.959z" opacity=".1"/>
    <path fill="#E9E9EF" d="M352.165 181.431l-8.666 10.164-4.176 4.9v1.329c-5.111 1.179-21.04-2.179-24.552-2.95a34.518 34.518 0 01-.691-.151c-10.186.443-47.828-21.71-47.828-21.71s-41.185 7.089-61.114 5.317c-11.129-.992-14.246-5.02-14.831-8.387a8.742 8.742 0 01.66-4.905l17.776-12.512 2.36-1.661 3.769-2.658s6.55-1.485 14.871-3.323c12.998-2.867 30.322-6.593 33.83-6.863 5.757-.443 20.371 4.43 28.785 14.178a24.878 24.878 0 004.871 3.987l.231.151c2.365 1.568 5.279 3.238 8.525 4.944 10.721 5.649 25.012 11.715 34.839 15.698 6.714 2.698 11.341 4.452 11.341 4.452z"/>
    <path fill="#000" d="M365.008 182.318l-3.1 22.595-7.971-.886s-.483-.443-1.302-1.187c1.771.04 4.676-.47 5.287-4.129 0 0-3.069-10.745 1.772-15.366a12.994 12.994 0 005.314-1.027z" opacity=".1"/>
    <path fill="#DC9BA3" d="M358.808 198.711s-4.428-15.507 5.757-17.28l16.829 6.646 19.485 1.329s5.088 8.312-3.069 17.616a25.049 25.049 0 01-17.714 8.418l-21.292.997-6.643-13.734s5.761 1.324 6.647-3.992z"/>
    <path fill="#000" d="M250.686 137.715c-2.215.651-11.462 3.412-20.921 7.16a116.37 116.37 0 00-13.631 6.287 66.863 66.863 0 00-2.613 1.555c-2.48 1.573-4.477 3.185-5.712 4.785-5.465 7.089-13.494 10.881-17.489 12.436a8.738 8.738 0 01.66-4.904l17.763-12.508-2.507-.106 3.326-1.648-1.997-.124 24.135-10.855s7.985-.558 18.986-2.078zM222.25 82.993l-1.612 4.954-14.614-15.064s.642-1.493 1.603-3.585c1.847 3.921 10.668 10.758 14.623 13.695z" opacity=".1"/>
    <path fill="#CEDAD5" d="M169.524 90.352a25.78 25.78 0 01-1.143-4.62l-19.042 6.645s-13.064 9.969-11.736 31.679c0 0 16.164-5.982 23.25 1.107l.146 1.25a57.61 57.61 0 0015.611 32.954c3.542 3.7 6.842 7.873 8.6 11.874 0 0 12.4-3.544 19.928-13.292 7.529-9.747 43.4-19.937 43.4-19.937s-19.043.443-21.7-6.203-11.514-20.824-8.414-31.9c3.1-11.076 4.871-14.62 4.871-14.62s-18.157-12.85-16.828-16.837l-11.514 13.292-5.315 1.772a8.5 8.5 0 01.625 3.239c.283 12.046-16.705 14.944-20.739 3.597z"/>
    <path fill="url(#paint3_linear)" d="M63.687 145.881s3.71 4.873-1.714 12.184c-5.425 7.31-9.898 13.517-8.087 18.09 0 0 8.184-13.616 14.845-13.806 6.66-.191 2.285-8.267-5.044-16.468z"/>
    <path fill="#000" d="M63.687 145.881c.323.469.578.982.757 1.524 6.501 7.638 9.96 14.767 3.715 14.948-5.819.169-12.798 10.576-14.472 13.208.055.203.122.402.2.598 0 0 8.183-13.615 14.844-13.806 6.66-.19 2.285-8.271-5.044-16.472z" opacity=".1"/>
    <path fill="#FFD037" d="M70.573 152.083c0 1.711-.19 3.102-.443 3.102-.252 0-.443-1.387-.443-3.102 0-1.714.24-.886.474-.886.235 0 .412-.824.412.886z"/>
    <path fill="#FFD037" d="M72.951 154.126c-1.501.819-2.808 1.329-2.918 1.103-.111-.226 1.01-1.041 2.51-1.856 1.502-.816.908-.222 1.024 0 .115.221.885-.067-.616.753z"/>
    <path fill="url(#paint4_linear)" d="M44.082 145.881s-3.712 4.873 1.713 12.184c5.425 7.31 9.898 13.517 8.087 18.09 0 0-8.184-13.616-14.844-13.806-6.661-.191-2.281-8.267 5.044-16.468z"/>
    <path fill="#000" d="M44.082 145.881a5.993 5.993 0 00-.758 1.524c-6.5 7.638-9.96 14.767-3.715 14.948 5.819.169 12.798 10.576 14.472 13.208a5.672 5.672 0 01-.2.598s-8.183-13.615-14.843-13.806c-6.661-.19-2.281-8.271 5.044-16.472z" opacity=".1"/>
    <path fill="#FFD037" d="M37.182 152.083c0 1.711.19 3.102.443 3.102.252 0 .443-1.387.443-3.102 0-1.714-.24-.886-.474-.886-.235 0-.412-.824-.412.886z"/>
    <path fill="#FFD037" d="M34.817 154.126c1.501.819 2.808 1.329 2.919 1.103.11-.226-1.01-1.041-2.511-1.856-1.502-.816-.908-.222-1.023 0-.116.221-.886-.067.615.753z"/>
    <path fill="#A8A8A8" d="M38.364 175.534s10.377-.319 13.503-2.547c3.127-2.229 15.943-4.874 16.736-1.329.792 3.544 15.592 17.771 3.879 17.864-11.714.093-27.218-1.826-30.34-3.726-3.122-1.901-3.778-10.262-3.778-10.262z"/>
    <path fill="#000" d="M72.694 188.294c-11.713.093-27.217-1.825-30.34-3.726-2.377-1.449-3.325-6.646-3.64-9.043h-.345s.655 8.374 3.777 10.275c3.123 1.901 18.627 3.823 30.34 3.726 3.384-.027 4.548-1.232 4.486-3.013-.473 1.086-1.762 1.759-4.278 1.781z" opacity=".2"/>
    <path fill="url(#paint5_linear)" d="M121.306 234.133a5.168 5.168 0 001.696-2.561c.222-1.019-.212-2.237-1.186-2.61-1.09-.416-2.255.337-3.136 1.104-.881.766-1.895 1.635-3.051 1.471a4.655 4.655 0 001.29-1.984 4.658 4.658 0 00.145-2.363 1.818 1.818 0 00-.399-.886c-.606-.647-1.7-.368-2.427.142-2.302 1.621-2.945 4.749-2.958 7.567-.23-1.014-.035-2.073-.044-3.101-.009-1.028-.292-2.215-1.169-2.756a3.553 3.553 0 00-1.772-.421c-1.036-.04-2.187.067-2.896.824-.886.94-.651 2.521.115 3.545.766 1.023 1.927 1.683 2.998 2.401a6.644 6.644 0 012.144 2.043c.065.115.118.237.159.363h6.479a18.102 18.102 0 004.012-2.778z"/>
    <path fill="url(#paint6_linear)" d="M150.092 248.226a5.176 5.176 0 001.696-2.56c.221-1.019-.213-2.238-1.187-2.61-1.089-.417-2.254.337-3.135 1.103-.882.767-1.896 1.635-3.052 1.471a4.64 4.64 0 001.435-4.346 1.821 1.821 0 00-.398-.886c-.607-.647-1.701-.368-2.427.141-2.303 1.622-2.945 4.75-2.958 7.568-.231-1.015-.036-2.074-.045-3.102-.009-1.028-.292-2.215-1.169-2.755a3.528 3.528 0 00-1.771-.421c-1.037-.04-2.188.066-2.897.824-.885.939-.651 2.521.116 3.544.766 1.024 1.926 1.684 2.998 2.402a6.638 6.638 0 012.143 2.042c.065.116.118.237.16.363h6.478a18.075 18.075 0 004.013-2.778z"/>
    <path fill="url(#paint7_linear)" d="M185.431 181.21s42.957-17.722 77.942-.886l-8.414 17.722-40.299.886-29.229-17.722z"/>
    <path fill="#000" d="M189.851 78.704c.135-1.656.36-3.303.673-4.935l-24.8-2.216s1.719 1.485 2.467 7.023c2.91 1.728 6.306 4.054 9.933 4.054a19.39 19.39 0 0011.727-3.925z" opacity=".1"/>
    <path fill="#FFD2D9" d="M178.346 81.965c10.761 0 19.485-8.728 19.485-19.494 0-10.767-8.724-19.495-19.485-19.495-10.762 0-19.486 8.728-19.486 19.495 0 10.766 8.724 19.494 19.486 19.494z"/>
    <path fill="#844F6E" d="M163.953 67.566h2.657v-7.532l2.657-7.975s13.286-6.203 19.486-4.873l4.871 4.43s1.329-10.633-6.643-14.62c-7.971-3.988-22.142-2.216-25.685.885-3.543 3.102-9.3 8.418-4.871 23.04l1.328 3.544s5.314-1.773 6.2 3.101z"/>
    <g opacity=".05">
      <path fill="#000" d="M198.371 77.8l1.453-.482 6.705-7.723a1.892 1.892 0 01-.045-1.138l-8.113 9.344zM189.049 92.09c3.512-1.552 6.2-4.919 6.081-9.748 0-.261 0-.51-.045-.745l-.141.16-5.315 1.772a8.5 8.5 0 01.625 3.239 10.584 10.584 0 01-1.205 5.321zM240.708 137.649c-11.098 3.863-26.128 9.946-30.698 15.87-.111.146-.226.283-.341.443 12.16-8.343 38.869-15.95 38.869-15.95a69.168 69.168 0 01-7.83-.363zM190.081 166.811c-1.771-3.988-5.079-8.175-8.6-11.874a57.613 57.613 0 01-15.611-32.955l-.146-1.249c-7.085-7.089-23.249-1.108-23.249-1.108-.842-13.77 4.105-22.813 7.834-27.589l-.97.341s-13.064 9.969-11.736 31.679c0 0 16.164-5.982 23.25 1.107l.146 1.25a57.61 57.61 0 0015.611 32.954c3.542 3.7 6.842 7.873 8.6 11.874 0 0 10.792-3.101 18.352-11.413a45.847 45.847 0 01-13.481 6.983z" opacity=".05"/>
    </g>
    <path fill="#FFD2D9" d="M185.21 114.973s-21.257 30.571-32.328 39.432c-11.072 8.861-14.172-3.988-14.172-3.988v-28.355l19.486-2.215.208 2.689.235 3.07 18.157-19.494s18.157-16.393 21.7-6.646c3.542 9.747-13.286 15.507-13.286 15.507z"/>
    <path fill="#000" d="M158.404 122.536a42.19 42.19 0 01-8.414 3.735c-4.185 1.289-8.981-.067-11.293-.886v-3.31l19.486-2.215.221 2.676z" opacity=".1"/>
    <path fill="#CEDAD5" d="M138.489 119.182l-1.165 4.745s6.922 3.23 12.679 1.458c5.757-1.772 10.186-4.874 11.071-5.317.886-.443-3.542-5.317-3.542-5.317l-19.043 4.431z"/>
    <path fill="#000" d="M266.031 173.235a35.945 35.945 0 019.742-5.317 34.818 34.818 0 009.3-4.873" opacity=".1"/>
    <path fill="#fff" d="M400.879 189.406l-.726-.048c1.054 2.658 2.577 9.211-3.671 16.348a25.061 25.061 0 01-17.715 8.419l-20.623.965.66 1.361 21.296-1.011a25.049 25.049 0 0017.715-8.418c8.152-9.304 3.064-17.616 3.064-17.616z" opacity=".2"/>
    <path fill="#0F0" d="M300.458 212.224h-.067c.058 1.045.16 3.203.177 5.573.018-2.082-.048-4.129-.11-5.573zM325.683 208.396c.062.269.131.533.208.793.434-.248 1.058-.718-.208-.793z" opacity=".05"/>
    <path fill="#fff" d="M360.579 218.648c-4.539 2.065-38.674-3.948-43.315-4.78a3.458 3.458 0 01-.527 1.236s38.971 7.089 43.842 4.873c2.507-1.138 3.136-2.631 2.795-3.987-.257.943-1.09 1.883-2.795 2.658z" opacity=".2"/>
    <path fill="#0F0" d="M300.392 212.228c-.023-.443-.04-.669-.04-.669s-2.254.806.04.669z" opacity=".05"/>
    <path fill="#000" d="M195.582 52.724h-26.944c-.998 0-1.806.809-1.806 1.807V65.98c0 .998.808 1.807 1.806 1.807h26.944c.997 0 1.806-.809 1.806-1.807V54.53c0-.998-.809-1.807-1.806-1.807z" opacity=".1"/>
    <path fill="#000" d="M167.08 57.597h-10.682c-.597 0-1.081.484-1.081 1.081v3.598c0 .597.484 1.081 1.081 1.081h10.682a1.08 1.08 0 001.08-1.081v-3.598a1.08 1.08 0 00-1.08-1.08z" opacity=".1"/>
    <path fill="#7679B4" d="M195.582 52.28h-26.944c-.998 0-1.806.81-1.806 1.808v11.449c0 .998.808 1.807 1.806 1.807h26.944c.997 0 1.806-.809 1.806-1.807V54.088c0-.998-.809-1.807-1.806-1.807z"/>
    <path fill="#565388" d="M195.551 53.167h-23.348c-.998 0-1.807.809-1.807 1.807v9.677c0 .998.809 1.807 1.807 1.807h23.348c.997 0 1.806-.809 1.806-1.807v-9.677c0-.998-.809-1.807-1.806-1.807zM167.08 57.154h-10.682c-.597 0-1.081.484-1.081 1.081v3.598c0 .597.484 1.08 1.081 1.08h10.682a1.08 1.08 0 001.08-1.08v-3.598a1.08 1.08 0 00-1.08-1.08z"/>
    <path fill="#000" d="M190.728 53.158a30.185 30.185 0 0011.239-12.06c.297-.58.58-1.232.417-1.861-.315-1.205-1.887-1.418-3.021-1.936-2.112-.97-3.002-3.42-4.388-5.286a10.569 10.569 0 00-10.332-3.987c-2.019.407-3.888 1.409-5.925 1.71-4.394.642-9.185-2.02-13.131 0-1.798.926-3.016 2.658-4.088 4.386-2.688 4.302-6.058 8.861-3.613 13.908 1.404 2.884 3.644 5.277 6.793 6.118 3.149.842 6.793.142 9.995-.208 2.635-.284 5.394-.886 8.047-.607 3.104.337 5.044 1.604 8.007-.177z" opacity=".1"/>
    <path fill="#844F6E" d="M190.728 52.272a30.185 30.185 0 0011.239-12.06c.297-.58.58-1.232.417-1.861-.315-1.205-1.887-1.418-3.021-1.936-2.112-.97-3.002-3.42-4.388-5.286a10.569 10.569 0 00-10.332-3.987c-2.019.407-3.888 1.409-5.925 1.71-4.394.642-9.185-2.02-13.131 0-1.798.926-3.016 2.658-4.088 4.386-2.688 4.302-6.058 8.861-3.613 13.908 1.404 2.884 3.644 5.276 6.793 6.118 3.149.842 6.793.142 9.995-.208 2.635-.284 5.394-.886 8.047-.607 3.104.337 5.044 1.604 8.007-.177z"/>
    <path fill="url(#paint8_linear)" d="M459.996 103.343L267.359 137.79V34.448L459.996 0v103.343z" opacity=".2"/>
    <path fill="url(#paint9_linear)" d="M420.086 11.923l35.627-6.146.518 15.973-36.57 6.118.425-15.945z" opacity=".2"/>
    <g opacity=".2">
      <path fill="#252223" d="M350.788 101.096a13.266 13.266 0 013.685-.305c7.285.128 14.844.842 21.992-1.33 3.795-1.142 7.2-3.03 11.115-3.84 6.643-1.37 13.286.628 19.818-1.037 1.329-.342 2.954-.82 3.897-.306 1.094.593.319 2.135 1.652 2.525.422.053.837.148 1.24.284.487.283.181.886-.306 1.271-2.962 2.406-8.99.807-12.701 2.752-.823.443-1.443 1.001-2.214 1.462a16.717 16.717 0 01-3.848 1.418l-20.606 5.759c-4.934 1.378-9.933 2.774-15.035 3.381-5.102.607-10.394.359-14.132-1.374-.801-.372-1.545-.828-1.851-1.448-1.452-2.925 2.161-7.847 7.294-9.212z" opacity=".1"/>
      <path fill="url(#paint10_linear)" d="M332.609 60.282l17.24 13.637 17.241 13.633-28.316 5.357-28.316 5.352 11.075-18.99 11.076-18.989z" opacity=".3"/>
      <path fill="url(#paint11_linear)" d="M350.536 57.128l17.24 13.632 17.24 13.638L356.7 89.75l-28.316 5.356 11.076-18.99 11.076-18.988z" opacity=".3"/>
      <path fill="url(#paint12_linear)" d="M377.2 28.759l-33.272 63.41 63.098-12.286 23.316-4.408L377.2 28.759z" opacity=".2"/>
      <path fill="#000" d="M430.342 75.475l-23.316 4.408L377.2 28.759l53.142 46.716z" opacity=".1"/>
      <path fill="url(#paint13_linear)" d="M394.741 58.156a1.81 1.81 0 00-1.922-1.33s.443-3.482-6.731-2.078a1.83 1.83 0 00-2.839-.576l-.305-1.617s-3.933 2.255.234 5.472l.501 2.658a.79.79 0 00.062.195c.022.049.04.1.053.15.19.776 1.59 6.921-1.59 9.022-3.405 2.281-5.354-4.75-5.354-4.75-2.214-9.185-6.43-9.15-7.431-9.003-.12 0-.244.027-.368.035-.469.027-1.926.55-2.484 5.844-.669 6.354-3.1 4.768-3.1 4.768-5.451-2.973-9.3-.373-9.3-.373-9.459 5.565-1.417 16.004.244 17.984-.625 3.15-1.887 8.702-3.1 8.932-1.719.324-4.934 6.358 3.773 15.742l2.316-.443s-7.161-9.358-1.523-14.014a7.379 7.379 0 01-.443.997c-3.158 5.401 7.586 11.909 7.586 11.909l2.577-.487-5.952-7.501c-2.365-3.101 2.046-5.636 2.046-5.636 5.221-4.368 2.533-9.64 2.533-9.64l12.188-2.304c-1.506 3.331-3.72 11.519 3.64 22.303l1.718-.324-1.404-13.078s.443-2.814 3.428-7.058c1.187 5.316 3.702 14.492 7.502 18.333l2.489-.469s-3.034-8.706-3.1-11.963a58.666 58.666 0 00-.208-3.947l-.62-6.859a5.884 5.884 0 002.612-6.136l-2.289-11.9a1.254 1.254 0 011.063-1.48l2.936-.4a.734.734 0 00.562-.978z" opacity=".2"/>
      <path fill="#535461" d="M382.784 80.025s2.755 16.42 8.144 21.86l2.445-.443s-2.976-8.546-3.056-11.732a56.392 56.392 0 00-.204-3.877l-1-11.076-6.329 5.268z" opacity=".2"/>
      <path fill="#000" d="M382.784 80.025s2.755 16.42 8.144 21.86l2.445-.443s-2.976-8.546-3.056-11.732a56.392 56.392 0 00-.204-3.877l-1-11.076-6.329 5.268z" opacity=".05"/>
      <path fill="#535461" d="M355.11 82.377s-1.771 10.55-3.445 10.869c-1.674.319-4.845 6.242 3.707 15.453l2.276-.443s-7.883-10.296-.385-14.51c-.005.013 1.302-8.794-2.153-11.369z" opacity=".2"/>
      <path fill="#000" d="M355.11 82.377s-1.771 10.55-3.445 10.869c-1.674.319-4.845 6.242 3.707 15.453l2.276-.443s-7.883-10.296-.385-14.51c-.005.013 1.302-8.794-2.153-11.369z" opacity=".05"/>
      <path fill="#535461" d="M383.462 61.062l-.492-2.596c-4.087-3.155-.23-5.37-.23-5.37l.527 2.782c9.685-2.791 9.167 1.41 9.167 1.41a1.77 1.77 0 011.887 1.288.738.738 0 01-.065.618.723.723 0 01-.52.34l-2.883.394a1.225 1.225 0 00-.835.501 1.228 1.228 0 00-.21.952l2.245 11.683a5.86 5.86 0 01-1.178 4.79c-.832 1.023-2.165 1.945-4.291 2.281l-22.249 4.21s2.657 5.179-2.489 9.463c0 0-4.331 2.477-2.01 5.534l5.841 7.364-2.529.478s-10.544-6.389-7.444-11.692a10.612 10.612 0 00-.713-10.695s-10.806-11.928-.518-17.98c0 0 3.795-2.552 9.145.368 0 0 2.387 1.555 3.042-4.679.545-5.197 1.975-5.71 2.436-5.737.119 0 .239 0 .358-.036.984-.141 5.133-.177 7.299 8.84 0 0 1.913 6.884 5.247 4.682 3.123-2.06 1.772-8.094 1.564-8.86a.843.843 0 00-.053-.147.8.8 0 01-.049-.186z" opacity=".2"/>
      <path fill="#535461" d="M377.182 80.472s-6.846 9.504 2.697 23.482l1.687-.319-1.377-12.848s.815-5.392 8.206-12.468l-11.213 2.153zM384.548 57.843a1.804 1.804 0 10-.67-3.544 1.804 1.804 0 00.67 3.544z" opacity=".2"/>
      <path fill="url(#paint14_linear)" d="M376.624 67.876c2.081-3.168.841-3.376.035-4.209-.549-.567-5.163-.784-8.037-.864a51.43 51.43 0 01-.275-1.045s-.23-.833-.336-1.418h.181l-.026-.173 3.542-.19c3.025-.125 3.171-1.33 3.171-1.33.071-2.069-3.343-.084-3.343-.084-.678.332-2.476.084-3.88-.19a7.726 7.726 0 01-.066-.886 6.679 6.679 0 00-.089-1.37 2.21 2.21 0 00-.443-1.072 18.074 18.074 0 00-3.569-3.26 6.153 6.153 0 01.213-2.327 2.822 2.822 0 001.488-3.008 2.735 2.735 0 00-.275-.78c.633-.842.337-2.282-.54-3.07a2.131 2.131 0 00-.301-.226 2.787 2.787 0 00-1.936-.443 5.048 5.048 0 00-2.099.86c-.748.495-1.475 1.125-2.369 1.222-.647.071-1.329-.15-1.935.049-.802.257-1.214 1.112-1.471 1.896-.256.784-.504 1.648-1.2 2.118-.606.408-1.39.403-2.103.576a3.1 3.1 0 00-2.237 1.874 2.05 2.05 0 00.806 2.344c.117.086.246.156.381.208.152.047.3.105.443.173a.369.369 0 01.146.244.784.784 0 01-.075.35 1.867 1.867 0 00.128 1.493c.082.165.21.303.368.398a.645.645 0 00.146.093c.518.226 1.16-.283 1.674-.053h.04c.199.216.372.456.514.714.121.152.272.278.442.372a2.17 2.17 0 001.528.328 5.39 5.39 0 001.9-.762c.784-.444 1.639-1.06 1.701-1.937.035-.536-.244-1.054-.178-1.586.037-.254.139-.494.297-.695-.088.449-.12.907-.093 1.364.016.37.061.74.133 1.104.168.95.51 1.862 1.01 2.689a11.722 11.722 0 011.457 3.487c.104.543.113 1.101.026 1.648-.283 1.586-.252 2.268-.172 2.556.048.39.177.395.177.395h.031a1.982 1.982 0 00.691 1.404c4.007 1.657 12.16-.691 12.16-.691-1.647.58-2.825 5.095-2.825 5.095a6.323 6.323 0 01-1.196 2.703c-.885-.133-1.931.86-2.719 1.44l-.066.044a.648.648 0 00-.115.975l3.135 3.438c1.807 1.28 2.847 1.364 3.14 1.001.19-.24.062-.664-.381-1.076-1.072-.997-.917-4.232-.886-4.506.492-1.108 2.383-4.741 4.132-7.404z" opacity=".2"/>
      <path fill="#F9D5C6" d="M363.954 49.05s-.912 2.096-.31 3.9l-3.396-1.804s1.08-.292.854-2.866l2.852.77z" opacity=".2"/>
      <path fill="#353535" d="M366.23 62.94s9.012.129 9.779.944c.766.815 1.939 1.032 0 4.107-1.94 3.075-4.083 7.497-4.083 7.497l-2.294-1.05a6.09 6.09 0 001.581-3.181s1.089-4.4 2.657-4.954c0 0-7.693 2.242-11.515.603 0 0-1.018-.767-.544-2.428.474-1.662 4.419-1.538 4.419-1.538z" opacity=".2"/>
      <path fill="#000" d="M361.226 51.226s-2.249-.554-2.086 2.898a7.734 7.734 0 001.072 3.544c.731 1.25 1.772 3.398 1.466 5.184-.443 2.703 0 2.707 0 2.707l1.151-.7a9.973 9.973 0 015.151-1.462h.536s-1.081-3.881-1.103-5.6c0-.816 0-1.573-.492-2.216-1.536-1.985-4.619-4.36-5.695-4.355z" opacity=".1"/>
      <path fill="#409CD6" d="M361.195 51.067s-2.25-.554-2.086 2.897a7.734 7.734 0 001.072 3.545c.731 1.25 1.771 3.398 1.466 5.183-.443 2.703 0 2.708 0 2.708l1.151-.7a9.973 9.973 0 015.15-1.463h.536s-1.08-3.88-1.102-5.6c0-.815 0-1.573-.492-2.215-1.537-1.994-4.619-4.355-5.695-4.355z" opacity=".2"/>
      <path fill="#000" d="M360.358 53.831a1.618 1.618 0 011.965-1.004c.261.074.499.212.692.402.348.365.624.792.815 1.258 1.067 2.42 1.878 3.925 1.878 3.925a12.9 12.9 0 012.024.47c.101.829.234 1.688.234 1.688l-2.874.142-3.937-4.67s-1.2-.988-.797-2.21z" opacity=".1"/>
      <path fill="#F9D5C6" d="M360.323 53.658a1.625 1.625 0 011.164-1.025 1.618 1.618 0 011.493.423c.347.365.624.792.815 1.258 1.067 2.42 1.877 3.926 1.877 3.926s4.327 1.191 5.443.629c0 0 3.215-1.919 3.162.102 0 0-.128 1.16-2.989 1.262l-6.227.306-3.937-4.67s-1.2-1.005-.801-2.21z" opacity=".2"/>
      <path fill="#000" d="M360.841 49.418c.084-.403.274-.248.212-.957l2.852.771a6.571 6.571 0 00-.292.886 3.07 3.07 0 01-.886.164c-.628.124-1.35-.567-1.886-.864z" opacity=".1"/>
      <path fill="#F9D5C6" d="M362.866 50.24a2.746 2.746 0 10-1.021-5.396 2.746 2.746 0 001.021 5.397z" opacity=".2"/>
      <path fill="#000" d="M363.48 46.884c-.487.027-1.018-.128-1.43.129-.412.257-.532.961-.443 1.51.089.55.319 1.104.19 1.649-.172.713-.885 1.152-1.505 1.528-.62.377-1.329.886-1.395 1.604-.058.518.208 1.028.177 1.55-.053.856-.855 1.445-1.599 1.88a4.946 4.946 0 01-1.771.73 1.858 1.858 0 01-1.749-.638c-.2-.274-.319-.642-.629-.784-.487-.23-1.094.266-1.581.044a.883.883 0 01-.39-.412 1.883 1.883 0 01-.128-1.453.784.784 0 00.066-.341c-.04-.28-.381-.372-.647-.474a2 2 0 01-1.036-2.424 2.904 2.904 0 012.104-1.816c.673-.168 1.417-.16 1.984-.55.655-.443.885-1.298 1.12-2.06.235-.762.62-1.595 1.377-1.838.585-.19 1.218.026 1.829-.036.846-.089 1.528-.7 2.215-1.178a4.632 4.632 0 011.979-.829 2.51 2.51 0 012.02.576c1.222 1.112 1.297 3.522-.758 3.633z" opacity=".1"/>
      <path fill="#2F302F" d="M363.378 46.818c-.487.026-1.018-.129-1.43.128-.412.257-.531.962-.443 1.511.089.55.319 1.103.191 1.648-.173.714-.886 1.152-1.506 1.529-.62.376-1.329.886-1.395 1.603-.058.519.208 1.028.177 1.551-.053.855-.855 1.445-1.599 1.879a4.944 4.944 0 01-1.771.73 1.857 1.857 0 01-1.745-.628c-.199-.275-.319-.643-.629-.785-.487-.23-1.094.266-1.581.045a.886.886 0 01-.389-.412 1.882 1.882 0 01-.129-1.453.785.785 0 00.067-.342c-.04-.279-.381-.372-.647-.474a1.995 1.995 0 01-1.036-2.423 2.89 2.89 0 012.103-1.817c.673-.168 1.417-.16 1.984-.55.656-.442.886-1.297 1.121-2.06.234-.761.62-1.594 1.377-1.838.585-.19 1.218.027 1.829-.035.846-.09 1.528-.7 2.214-1.179a4.63 4.63 0 011.98-.828 2.505 2.505 0 012.019.575c1.218 1.104 1.293 3.51-.762 3.625z" opacity=".2"/>
      <path fill="#000" d="M364.184 53.765s-3.542.23-3.241 2.707c.301 2.477-1.231-2.822-1.231-2.822l1.377-1.485 1.966.24 1.129 1.36z" opacity=".1"/>
      <path fill="#409CD6" d="M364.091 53.694s-3.542.23-3.241 2.707c.301 2.477-1.231-2.822-1.231-2.822l1.377-1.485 1.966.24 1.129 1.36zM367.36 76.254l2.985 3.372c1.718 1.258 2.701 1.33 2.976.997.177-.23.053-.647-.368-1.05-1.067-1.02-.886-4.43-.886-4.43a2.08 2.08 0 01-1.988-1.286c-.846-.132-1.82.829-2.564 1.387l-.062.044a.645.645 0 00-.093.966z" opacity=".2"/>
      <path fill="#000" d="M372.071 75.151s-1.7.235-1.988-1.285a2.136 2.136 0 001.988 1.285zM367.36 76.254l2.984 3.372c1.719 1.258 2.702 1.33 2.976.997-.859-.266-3.29-1.33-5.797-5.366l-.062.045a.653.653 0 00-.234.72.64.64 0 00.133.232z" opacity=".1"/>
      <path fill="url(#paint15_linear)" d="M318.495 102.643s-7.896 7.062 10.097 12.224c0 0 2.347-7.408-2.688-12.131a5.487 5.487 0 00-7.289-.213l-.12.12z" opacity=".2"/>
      <path stroke="#535461" stroke-miterlimit="10" d="M318.571 102.51s8.737 4.382 10.021 12.357" opacity=".2"/>
      <path stroke="#535461" stroke-miterlimit="10" stroke-width="2" d="M328.096 114.942s-4.583-8.959-2.586-16.566c.862-3.193.663-6.58-.567-9.65a25.654 25.654 0 00-2.165-4.16" opacity=".2"/>
      <path fill="url(#paint16_linear)" d="M324.009 79.785c.221 1.161-1.249 4.932-1.249 4.932s-2.741-2.973-2.958-4.134a2.14 2.14 0 114.207-.797z" opacity=".2"/>
      <path fill="url(#paint17_linear)" d="M328.703 85.567c-.443 1.095-3.724 3.46-3.724 3.46s-.687-3.987-.239-5.081a2.15 2.15 0 113.985 1.621h-.022z" opacity=".2"/>
      <path fill="url(#paint18_linear)" d="M330.629 96.6c-.938.717-4.964 1.107-4.964 1.107s1.422-3.788 2.356-4.506a2.139 2.139 0 013.424 1.98 2.146 2.146 0 01-.82 1.418h.004z" opacity=".2"/>
      <path fill="url(#paint19_linear)" d="M330.209 105.274c-.802.887-4.703 1.928-4.703 1.928s.757-3.988 1.563-4.838a2.143 2.143 0 011.488-.685 2.149 2.149 0 011.537.569 2.16 2.16 0 01.684 1.49 2.149 2.149 0 01-.569 1.536z" opacity=".2"/>
      <path fill="url(#paint20_linear)" d="M320.603 90.087c.988.65 5.027.757 5.027.757s-1.679-3.677-2.657-4.333a2.146 2.146 0 00-2.38.013 2.143 2.143 0 00.019 3.563h-.009z" opacity=".2"/>
      <path fill="url(#paint21_linear)" d="M320.24 100.246c1.138.328 5.022-.784 5.022-.784s-2.701-3.009-3.84-3.337a2.138 2.138 0 00-2.648 1.467 2.14 2.14 0 001.466 2.649v.005z" opacity=".2"/>
      <path fill="url(#paint22_linear)" d="M321.228 110.157c1.063.514 5.084.08 5.084.08s-2.157-3.421-3.22-3.935a2.143 2.143 0 00-1.864 3.859v-.004z" opacity=".2"/>
      <path fill="#000" d="M324.009 79.785c.221 1.161-1.249 4.932-1.249 4.932s-2.741-2.973-2.958-4.134a2.14 2.14 0 114.207-.797zM328.703 85.567c-.443 1.095-3.724 3.46-3.724 3.46s-.687-3.987-.239-5.081a2.15 2.15 0 113.985 1.621h-.022zM330.629 96.6c-.938.717-4.964 1.107-4.964 1.107s1.422-3.788 2.356-4.506a2.139 2.139 0 013.424 1.98 2.146 2.146 0 01-.82 1.418h.004zM330.209 105.274c-.802.887-4.703 1.928-4.703 1.928s.757-3.988 1.563-4.838a2.143 2.143 0 011.488-.685 2.149 2.149 0 011.537.569 2.16 2.16 0 01.684 1.49 2.149 2.149 0 01-.569 1.536zM320.603 90.087c.988.65 5.027.757 5.027.757s-1.679-3.677-2.657-4.333a2.146 2.146 0 00-2.38.013 2.143 2.143 0 00.019 3.563h-.009zM320.24 100.246c1.138.328 5.022-.784 5.022-.784s-2.701-3.009-3.84-3.337a2.138 2.138 0 00-2.648 1.467 2.14 2.14 0 001.466 2.649v.005zM321.228 110.157c1.063.514 5.084.08 5.084.08s-2.157-3.421-3.22-3.935a2.143 2.143 0 00-1.864 3.859v-.004z" opacity=".25"/>
      <path stroke="#535461" stroke-miterlimit="10" stroke-width="2" d="M336.728 116.639s-4.584-8.959-2.587-16.566a15.25 15.25 0 00-.562-9.628 25.572 25.572 0 00-2.166-4.16" opacity=".2"/>
      <path fill="url(#paint23_linear)" d="M332.658 81.478c.221 1.16-1.249 4.931-1.249 4.931s-2.741-2.973-2.958-4.134a2.14 2.14 0 114.207-.797z" opacity=".2"/>
      <path fill="url(#paint24_linear)" d="M337.352 87.26c-.443 1.094-3.724 3.46-3.724 3.46s-.687-3.987-.24-5.082a2.151 2.151 0 113.986 1.622h-.022z" opacity=".2"/>
      <path fill="url(#paint25_linear)" d="M339.278 98.292c-.939.718-4.964 1.108-4.964 1.108s1.422-3.788 2.356-4.506a2.139 2.139 0 013.423 1.98 2.14 2.14 0 01-.819 1.418h.004z" opacity=".2"/>
      <path fill="url(#paint26_linear)" d="M338.858 106.967c-.802.886-4.703 1.927-4.703 1.927s.757-3.987 1.563-4.838a2.136 2.136 0 013.024-.115 2.143 2.143 0 01.116 3.026z" opacity=".2"/>
      <path fill="url(#paint27_linear)" d="M329.252 91.779c.988.651 5.027.758 5.027.758s-1.679-3.678-2.658-4.333a2.133 2.133 0 00-1.609-.312 2.144 2.144 0 00-.751 3.887h-.009z" opacity=".2"/>
      <path fill="url(#paint28_linear)" d="M328.889 101.934c1.138.328 5.022-.784 5.022-.784s-2.701-3.009-3.84-3.337a2.137 2.137 0 00-2.648 1.467 2.14 2.14 0 001.466 2.649v.005z" opacity=".2"/>
      <path fill="url(#paint29_linear)" d="M329.89 111.849c1.063.514 5.084.08 5.084.08s-2.157-3.42-3.22-3.934a2.157 2.157 0 00-1.637-.095 2.157 2.157 0 00-1.224 1.092 2.163 2.163 0 00-.21.809 2.157 2.157 0 00.54 1.549c.187.21.414.381.667.504v-.005z" opacity=".2"/>
      <path fill="#252223" d="M355.026 34.762l-.779.146a.557.557 0 00.441-.649.557.557 0 00-.649-.44l-6.311 1.191a.557.557 0 00-.441.65.556.556 0 00.649.44l.78-.146a.555.555 0 10.208 1.09l-1.09.208a.553.553 0 00-.44.65.551.551 0 00.649.44l6.31-1.192a.553.553 0 00.008-1.088.55.55 0 00-.216-.002l1.089-.208a.555.555 0 10-.208-1.09zM343.596 45.604l-.779.146a.558.558 0 00.44-.65.543.543 0 00-.233-.354.555.555 0 00-.415-.086l-6.324 1.192a.555.555 0 10.208 1.09l.779-.147a.556.556 0 00.208 1.09l-1.089.209a.555.555 0 10.208 1.09l6.328-1.192a.555.555 0 10-.208-1.09l1.09-.208a.556.556 0 00-.208-1.09h-.005zM408.151 31.754l-.78.146a.555.555 0 10-.208-1.09l-6.306 1.205a.557.557 0 00-.441.65.559.559 0 00.649.44l.78-.146a.555.555 0 10.208 1.09l-1.112.181a.557.557 0 00-.441.65.556.556 0 00.649.44l6.311-1.191a.55.55 0 00.355-.234.557.557 0 00-.347-.855.551.551 0 00-.216-.001l1.089-.209a.553.553 0 00.208-1.003.56.56 0 00-.416-.087l.018.014z" opacity=".1"/>
      <path fill="url(#paint30_linear)" d="M324.949 51.329a5.879 5.879 0 004.683-6.87 5.876 5.876 0 10-11.548 2.184 5.876 5.876 0 006.865 4.686z" opacity=".3"/>
      <path fill="#000" d="M358.923 75.962s2.954 2.61 4.331 4.927c1.378 2.317.939 3.101.939 3.101" opacity=".05"/>
    </g>
  </g>
  <defs>
    <linearGradient id="paint0_linear" x1="75.776" x2="120.26" y1="127.283" y2="310.518" gradientUnits="userSpaceOnUse">
      <stop stop-color="#FF512F"/>
      <stop offset="1" stop-color="#DF2672"/>
    </linearGradient>
    <linearGradient id="paint1_linear" x1="134.324" x2="273.158" y1="30.184" y2="272.496" gradientUnits="userSpaceOnUse">
      <stop stop-color="#FF512F"/>
      <stop offset="1" stop-color="#DF2672"/>
    </linearGradient>
    <linearGradient id="paint2_linear" x1="138.209" x2="275.668" y1="29.766" y2="264.843" gradientUnits="userSpaceOnUse">
      <stop stop-color="#FF512F"/>
      <stop offset="1" stop-color="#DF2672"/>
    </linearGradient>
    <linearGradient id="paint3_linear" x1="56.743" x2="78.826" y1="148.123" y2="164.646" gradientUnits="userSpaceOnUse">
      <stop stop-color="#FF512F"/>
      <stop offset="1" stop-color="#DF2672"/>
    </linearGradient>
    <linearGradient id="paint4_linear" x1="39.019" x2="61.102" y1="148.123" y2="164.645" gradientUnits="userSpaceOnUse">
      <stop stop-color="#FF512F"/>
      <stop offset="1" stop-color="#DF2672"/>
    </linearGradient>
    <linearGradient id="paint5_linear" x1="108.042" x2="114.666" y1="226.741" y2="240.176" gradientUnits="userSpaceOnUse">
      <stop stop-color="#FF512F"/>
      <stop offset="1" stop-color="#DF2672"/>
    </linearGradient>
    <linearGradient id="paint6_linear" x1="136.827" x2="143.452" y1="240.835" y2="254.27" gradientUnits="userSpaceOnUse">
      <stop stop-color="#FF512F"/>
      <stop offset="1" stop-color="#DF2672"/>
    </linearGradient>
    <linearGradient id="paint7_linear" x1="199.162" x2="209.112" y1="174.98" y2="211.613" gradientUnits="userSpaceOnUse">
      <stop stop-color="#FF512F"/>
      <stop offset="1" stop-color="#DF2672"/>
    </linearGradient>
    <linearGradient id="paint8_linear" x1="301.295" x2="392.646" y1="10.207" y2="166.26" gradientUnits="userSpaceOnUse">
      <stop stop-color="#FF512F"/>
      <stop offset="1" stop-color="#DF2672"/>
    </linearGradient>
    <linearGradient id="paint9_linear" x1="426.103" x2="439.448" y1="7.414" y2="34.409" gradientUnits="userSpaceOnUse">
      <stop stop-color="#FF512F"/>
      <stop offset="1" stop-color="#DF2672"/>
    </linearGradient>
    <linearGradient id="paint10_linear" x1="320.434" x2="344.793" y1="63.095" y2="107.478" gradientUnits="userSpaceOnUse">
      <stop stop-color="#FF512F"/>
      <stop offset="1" stop-color="#DF2672"/>
    </linearGradient>
    <linearGradient id="paint11_linear" x1="338.361" x2="362.72" y1="59.941" y2="104.324" gradientUnits="userSpaceOnUse">
      <stop stop-color="#FF512F"/>
      <stop offset="1" stop-color="#DF2672"/>
    </linearGradient>
    <linearGradient id="paint12_linear" x1="359.151" x2="401.709" y1="33.456" y2="104.322" gradientUnits="userSpaceOnUse">
      <stop stop-color="#FF512F"/>
      <stop offset="1" stop-color="#DF2672"/>
    </linearGradient>
    <linearGradient id="paint13_linear" x1="377.037" x2="367.662" y1="105.096" y2="55.502" gradientUnits="userSpaceOnUse">
      <stop stop-color="gray" stop-opacity=".25"/>
      <stop offset=".54" stop-color="gray" stop-opacity=".12"/>
      <stop offset="1" stop-color="gray" stop-opacity=".1"/>
    </linearGradient>
    <linearGradient id="paint14_linear" x1="26589.6" x2="26589.6" y1="13758.7" y2="10180.9" gradientUnits="userSpaceOnUse">
      <stop stop-color="gray" stop-opacity=".25"/>
      <stop offset=".54" stop-color="gray" stop-opacity=".12"/>
      <stop offset="1" stop-color="gray" stop-opacity=".1"/>
    </linearGradient>
    <linearGradient id="paint15_linear" x1="318.949" x2="329.253" y1="102.251" y2="113.68" gradientUnits="userSpaceOnUse">
      <stop stop-color="#FF512F"/>
      <stop offset="1" stop-color="#DF2672"/>
    </linearGradient>
    <linearGradient id="paint16_linear" x1="320.516" x2="325.44" y1="78.537" y2="82.383" gradientUnits="userSpaceOnUse">
      <stop stop-color="#FF512F"/>
      <stop offset="1" stop-color="#DF2672"/>
    </linearGradient>
    <linearGradient id="paint17_linear" x1="325.345" x2="330.131" y1="83.08" y2="86.991" gradientUnits="userSpaceOnUse">
      <stop stop-color="#FF512F"/>
      <stop offset="1" stop-color="#DF2672"/>
    </linearGradient>
    <linearGradient id="paint18_linear" x1="326.686" x2="330.218" y1="93.126" y2="98.183" gradientUnits="userSpaceOnUse">
      <stop stop-color="#FF512F"/>
      <stop offset="1" stop-color="#DF2672"/>
    </linearGradient>
    <linearGradient id="paint19_linear" x1="326.435" x2="330.585" y1="102.087" y2="106.929" gradientUnits="userSpaceOnUse">
      <stop stop-color="#FF512F"/>
      <stop offset="1" stop-color="#DF2672"/>
    </linearGradient>
    <linearGradient id="paint20_linear" x1="320.704" x2="323.944" y1="86.504" y2="91.553" gradientUnits="userSpaceOnUse">
      <stop stop-color="#FF512F"/>
      <stop offset="1" stop-color="#DF2672"/>
    </linearGradient>
    <linearGradient id="paint21_linear" x1="319.849" x2="322.535" y1="96.358" y2="101.416" gradientUnits="userSpaceOnUse">
      <stop stop-color="#FF512F"/>
      <stop offset="1" stop-color="#DF2672"/>
    </linearGradient>
    <linearGradient id="paint22_linear" x1="321.127" x2="323.931" y1="106.409" y2="111.402" gradientUnits="userSpaceOnUse">
      <stop stop-color="#FF512F"/>
      <stop offset="1" stop-color="#DF2672"/>
    </linearGradient>
    <linearGradient id="paint23_linear" x1="329.165" x2="334.089" y1="80.229" y2="84.076" gradientUnits="userSpaceOnUse">
      <stop stop-color="#FF512F"/>
      <stop offset="1" stop-color="#DF2672"/>
    </linearGradient>
    <linearGradient id="paint24_linear" x1="333.994" x2="338.78" y1="84.772" y2="88.683" gradientUnits="userSpaceOnUse">
      <stop stop-color="#FF512F"/>
      <stop offset="1" stop-color="#DF2672"/>
    </linearGradient>
    <linearGradient id="paint25_linear" x1="335.335" x2="338.867" y1="94.818" y2="99.876" gradientUnits="userSpaceOnUse">
      <stop stop-color="#FF512F"/>
      <stop offset="1" stop-color="#DF2672"/>
    </linearGradient>
    <linearGradient id="paint26_linear" x1="335.084" x2="339.234" y1="103.779" y2="108.621" gradientUnits="userSpaceOnUse">
      <stop stop-color="#FF512F"/>
      <stop offset="1" stop-color="#DF2672"/>
    </linearGradient>
    <linearGradient id="paint27_linear" x1="329.353" x2="332.593" y1="88.196" y2="93.245" gradientUnits="userSpaceOnUse">
      <stop stop-color="#FF512F"/>
      <stop offset="1" stop-color="#DF2672"/>
    </linearGradient>
    <linearGradient id="paint28_linear" x1="328.497" x2="331.184" y1="98.046" y2="103.104" gradientUnits="userSpaceOnUse">
      <stop stop-color="#FF512F"/>
      <stop offset="1" stop-color="#DF2672"/>
    </linearGradient>
    <linearGradient id="paint29_linear" x1="329.789" x2="332.593" y1="108.101" y2="113.094" gradientUnits="userSpaceOnUse">
      <stop stop-color="#FF512F"/>
      <stop offset="1" stop-color="#DF2672"/>
    </linearGradient>
    <linearGradient id="paint30_linear" x1="319.189" x2="329.787" y1="41.337" y2="50.228" gradientUnits="userSpaceOnUse">
      <stop stop-color="#FF512F"/>
      <stop offset="1" stop-color="#DF2672"/>
    </linearGradient>
    <clipPath id="clip0">
      <path fill="#fff" d="M0 0h460v251H0z"/>
    </clipPath>
  </defs>
</svg>
