<svg xmlns="http://www.w3.org/2000/svg" width="56" height="56" fill="none" viewBox="0 0 56 56">
  <g clip-path="url(#clip0)">
    <path fill="#fff" d="M46.067 42.105l-8.939-2.235-.516-2.065c6.167-1.039 9.34-2.887 9.48-2.968.332-.194.537-.546.565-.929a1.186 1.186 0 00-.445-.999C46.17 32.877 42 29.433 42 17.5c0-10.064-2.354-15.167-7-15.167h-.688C32.636.714 31.379 0 28 0c-4.384 0-14 4.408-14 17.5 0 11.933-4.17 15.377-4.2 15.4a1.166 1.166 0 00.098 1.932c.14.084 3.283 1.941 9.487 2.977l-.515 2.06-8.94 2.236A13.097 13.097 0 000 54.833C0 55.477.523 56 1.167 56h53.666c.644 0 1.167-.527 1.167-1.171 0-6.03-4.083-11.261-9.933-12.724z"/>
  </g>
  <defs>
    <clipPath id="clip0">
      <path fill="#fff" d="M0 0h56v56H0z"/>
    </clipPath>
  </defs>
</svg>
