<svg xmlns="http://www.w3.org/2000/svg" width="32" height="32" fill="none" viewBox="0 0 32 32">
  <path fill="#fff" d="M30.366 8.502a3.758 3.758 0 00-2.644-2.645c-2.347-.642-11.738-.642-11.738-.642s-9.39 0-11.738.618a3.835 3.835 0 00-2.644 2.669c-.618 2.347-.618 7.215-.618 7.215s0 4.893.618 7.216a3.759 3.759 0 002.644 2.644c2.373.643 11.738.643 11.738.643s9.39 0 11.738-.618a3.759 3.759 0 002.645-2.644c.617-2.348.617-7.216.617-7.216s.025-4.893-.618-7.24zM12.994 20.215V11.22l7.809 4.497-7.809 4.498z"/>
</svg>
